<?xml version="1.0" standalone="no"?>
<!DOCTYPE svg PUBLIC "-//W3C//DTD SVG 1.1//EN" "http://www.w3.org/Graphics/SVG/1.1/DTD/svg11.dtd" >
<svg xmlns="http://www.w3.org/2000/svg" xmlns:xlink="http://www.w3.org/1999/xlink" version="1.1">
<metadata>
Created by FontForge 20150824 at Wed Aug  3 01:09:23 2016
 By Everything Fonts
Copyright (c) 2016 by Jo De Baerdemaeker. All rights reserved.
</metadata>
<defs>
<font id="KdGRegular" horiz-adv-x="560" >
  <font-face 
    font-family="KdGRegular"
    font-weight="400"
    font-stretch="normal"
    units-per-em="1000"
    panose-1="0 0 5 0 0 0 0 0 0 0"
    ascent="800"
    descent="-200"
    x-height="460"
    cap-height="700"
    bbox="-100 -248 1798 1025"
    underline-thickness="50"
    underline-position="-150"
    unicode-range="U+0020-2265"
  />
<missing-glyph horiz-adv-x="500" 
d="M410 800v-1000h-317v1000h317zM333 733h-165v-33h65v-37h-66v-33h166v33h-66v37h66v33zM267 604h-100v-104h166v34h-66v70zM233 570v-36h-33v36h33zM333 473h-166v-33h66v-37h-66v-33h100v70h66v33zM333 413h-33v-66h-133v-34h166v100zM333 291h-100v-56h34v23h33v-47
h-100v80h-33v-113h166v113zM333 118h-166v-113h166v113zM300 85v-47h-100v47h100zM333 -18h-166v-33h70l-70 -47v-33h166v33h-102l70 47h32v33z" />
    <glyph glyph-name="K_d_G.liga" unicode="KdG" horiz-adv-x="1868" 
d="M70 -38v769h80v-769h-80zM1082 721v-3l39 -764l-78 -4l-9 178q-23 -61 -77.5 -98.5t-122.5 -37.5q-87 0 -149 61t-62 149t62 149.5t149 61.5q63 0 114.5 -32t79.5 -86l-24 423zM544 655l-271 -283l-55 54l270 284zM1633 38l6 -77q-25 -3 -43 -3q-37 0 -79 10t-90 34.5
t-88 60t-70 93.5t-38 129q-17 151 79 269.5t248 135.5l9 -78q-124 -16 -196 -105t-62 -212q12 -110 94 -184t192 -74q23 0 38 1zM834 68q57 0 96 39.5t39 94.5t-39 94.5t-96 39.5q-53 0 -92.5 -40t-39.5 -94q0 -55 39.5 -94.5t92.5 -39.5zM1446 334h352v-366h-80v285h-272
v81zM218 275l55 57l318 -311l-54 -55l-3 2z" />
    <glyph glyph-name="i_j.liga" unicode="ij" horiz-adv-x="507" 
d="M137 700v-82h-82v82h82zM370 700h82v-82h-82v82zM296 76v-84q-101 0 -170.5 68.5t-69.5 169.5v230h80v-230q0 -64 47.5 -109t112.5 -45zM371 -10v470h80v-470q0 -101 -69.5 -169.5t-170.5 -68.5v84q65 0 112.5 45t47.5 109z" />
    <glyph glyph-name=".notdef" horiz-adv-x="500" 
d="M410 800v-1000h-317v1000h317zM333 733h-165v-33h65v-37h-66v-33h166v33h-66v37h66v33zM267 604h-100v-104h166v34h-66v70zM233 570v-36h-33v36h33zM333 473h-166v-33h66v-37h-66v-33h100v70h66v33zM333 413h-33v-66h-133v-34h166v100zM333 291h-100v-56h34v23h33v-47
h-100v80h-33v-113h166v113zM333 118h-166v-113h166v113zM300 85v-47h-100v47h100zM333 -18h-166v-33h70l-70 -47v-33h166v33h-102l70 47h32v33z" />
    <glyph glyph-name=".null" horiz-adv-x="0" 
 />
    <glyph glyph-name="nonmarkingreturn" horiz-adv-x="333" 
 />
    <glyph glyph-name="space" unicode=" " horiz-adv-x="250" 
 />
    <glyph glyph-name="exclam" unicode="!" horiz-adv-x="282" 
d="M182 800v-568h-82v568h82zM182 82v-82h-82v82h82z" />
    <glyph glyph-name="quotedbl" unicode="&#x22;" horiz-adv-x="446" 
d="M182 800v-186h-82v186h82zM346 800v-186h-82v186h82z" />
    <glyph glyph-name="numbersign" unicode="#" horiz-adv-x="702" 
d="M624 384h-125l-24 -110h149l-28 -76h-137l-34 -155l-67 45l24 110l-132 1l-34 -156l-67 45l24 111h-123l29 75h110l24 111h-135l29 75h123l33 153l67 -45l-23 -108h132l33 153l67 -45l-23 -108h136zM398 274l24 110l-132 1l-24 -111h132z" />
    <glyph glyph-name="dollar" unicode="$" horiz-adv-x="600" 
d="M177 331q-67 39 -99.5 91t-32.5 106q0 63 41 115t109 64v93h82v-95q47 -9 95 -37l-40 -68q-24 14 -55 23v-85h-82v83q-31 -11 -48.5 -37t-17.5 -58q0 -74 88 -125zM407 174q0 -62 -41 -114t-108 -65v-93h-82v94q-46 9 -96 38l40 68q32 -18 56 -23v85h82v-82
q31 11 48 36.5t17 57.5q0 74 -88 125l40 70q67 -39 99.5 -91t32.5 -106z" />
    <glyph glyph-name="percent" unicode="%" horiz-adv-x="965" 
d="M225 313q80 0 136.5 57.5t56.5 139.5t-56.5 140t-136.5 58q-85 0 -142.5 -57.5t-57.5 -140.5q0 -82 58.5 -139.5t141.5 -57.5zM188 37l514 671l67 -45l-514 -671zM224 394q-48 0 -82.5 34.5t-34.5 81.5t34.5 81.5t82.5 34.5q46 0 79 -34.5t33 -81.5t-33 -81.5t-79 -34.5z
M747 -8q80 0 136.5 57.5t56.5 139.5t-56.5 140t-136.5 58q-85 0 -142.5 -57.5t-57.5 -140.5q0 -82 58.5 -139.5t141.5 -57.5zM746 73q-48 0 -82.5 34.5t-34.5 81.5t34.5 81.5t82.5 34.5q46 0 79 -34.5t33 -81.5t-33 -81.5t-79 -34.5z" />
    <glyph glyph-name="ampersand" unicode="&#x26;" horiz-adv-x="624" 
d="M599 390v-80h-85v-115q0 -80 -62.5 -137.5t-174.5 -57.5t-174.5 57.5t-62.5 137.5q0 45 22 86t64 69q-86 56 -86 155q0 79 62.5 137t174.5 58v-80q-72 0 -112 -34t-40 -80q0 -47 40.5 -81.5t111.5 -34.5v-80q-72 0 -112 -34t-40 -80q0 -47 40.5 -81.5t111.5 -34.5
t111.5 34t40.5 81v115h-82v80h252z" />
    <glyph glyph-name="quotesingle" unicode="'" horiz-adv-x="282" 
d="M182 800v-186h-82v186h82z" />
    <glyph glyph-name="parenleft" unicode="(" horiz-adv-x="440" 
d="M340 624q-65 0 -112.5 -45t-47.5 -109v-240q0 -64 47.5 -109t112.5 -45v-84q-101 0 -170.5 68.5t-69.5 169.5v240q0 101 69.5 169.5t170.5 68.5v-84z" />
    <glyph glyph-name="parenright" unicode=")" horiz-adv-x="440" 
d="M100 708q101 0 170.5 -68.5t69.5 -169.5v-240q0 -101 -69.5 -169.5t-170.5 -68.5v84q65 0 112.5 45t47.5 109v240q0 64 -47.5 109t-112.5 45v84z" />
    <glyph glyph-name="asterisk" unicode="*" horiz-adv-x="552" 
d="M350 467l-6 -14l98 -123l-64 -51l-103 129l-103 -129l-64 51l99 124l-5 13l-152 66l34 76l151 -66l-1 165h82l1 -165l151 66l34 -76z" />
    <glyph glyph-name="plus" unicode="+" horiz-adv-x="700" 
d="M600 275v-80h-210v-210h-80v210h-210v80h210v210h80v-210h210z" />
    <glyph glyph-name="comma" unicode="," horiz-adv-x="282" 
d="M186 80l-8 -165l-82 4l8 165z" />
    <glyph glyph-name="hyphen" unicode="-" horiz-adv-x="552" 
d="M452 190h-352v80h352v-80z" />
    <glyph glyph-name="period" unicode="." horiz-adv-x="282" 
d="M182 82v-82h-82v82h82z" />
    <glyph glyph-name="slash" unicode="/" horiz-adv-x="407" 
d="M15 37l310 671l67 -45l-310 -671z" />
    <glyph glyph-name="zero" unicode="0" horiz-adv-x="550" 
d="M275 624q-62 0 -93.5 -43t-31.5 -111h-80q0 105 54 171.5t150 66.5q97 0 151.5 -67t54.5 -171h-80q0 68 -32 111t-93 43zM400 230v190h80v-190q0 -104 -54.5 -171t-151.5 -67q-96 0 -150 66.5t-54 171.5v190h80v-190q0 -68 31.5 -111t93.5 -43q61 0 93 43t32 111z" />
    <glyph glyph-name="one" unicode="1" horiz-adv-x="507" 
d="M191 708l71 -37l-150 -285l-72 37zM372 80h125v-80h-330v80h125v620h80v-620z" />
    <glyph glyph-name="two" unicode="2" horiz-adv-x="510" 
d="M244 623q-46 0 -80 -40t-34 -112h-80q0 112 58 174.5t137 62.5q80 0 137.5 -62.5t57.5 -174.5h-80q0 71 -34.5 111.5t-81.5 40.5zM430 400l-255 -318h265v-80h-370v80l290 359z" />
    <glyph glyph-name="three" unicode="3" horiz-adv-x="407" 
d="M251 350q42 -28 64 -69t22 -86q0 -80 -62.5 -137.5t-174.5 -57.5v80q71 0 111.5 34.5t40.5 81.5q0 46 -40 80t-112 34v80q71 0 111.5 34.5t40.5 81.5q0 46 -40 80t-112 34v80q112 0 174.5 -58t62.5 -137q0 -99 -86 -155z" />
    <glyph glyph-name="four" unicode="4" horiz-adv-x="457" 
d="M447 269v-80h-75v-189h-80v189h-282v80l186 439l71 -38l-171 -401h196v431h80v-431h75z" />
    <glyph glyph-name="five" unicode="5" horiz-adv-x="456" 
d="M396 199q4 -80 -55.5 -140.5t-171.5 -66.5l-4 80q70 4 109 40t37 84q-2 50 -49.5 82.5t-147.5 23.5h-44v398h80v-316q120 0 181 -54t65 -131zM380 700v-80h-180v80h180z" />
    <glyph glyph-name="six" unicode="6" horiz-adv-x="513" 
d="M260 426q89 0 151 -63.5t62 -154.5t-62 -153.5t-151 -62.5q-92 0 -156 62.5t-64 153.5q0 54 23 100l197 400l67 -38l-121 -250q26 6 54 6zM259 74q55 0 93.5 39t38.5 95t-38.5 96t-93.5 40q-56 0 -96.5 -40t-40.5 -96t40 -95t97 -39z" />
    <glyph glyph-name="seven" unicode="7" horiz-adv-x="510" 
d="M470 671l-358 -679l-72 37l359 679zM334 620h-294v80h294v-80z" />
    <glyph glyph-name="eight" unicode="8" horiz-adv-x="533" 
d="M381 350q82 -59 82 -160q0 -83 -57.5 -140.5t-142.5 -57.5q-80 0 -136.5 58t-56.5 140q0 102 81 160q-81 60 -81 161q0 82 56.5 139.5t136.5 57.5q83 0 141.5 -57.5t58.5 -139.5q0 -50 -22 -92t-60 -69zM264 626q-46 0 -79 -34t-33 -81t33 -82t79 -35q48 0 82.5 35
t34.5 82t-34.5 81t-82.5 34zM264 74q48 0 82.5 34.5t34.5 81.5t-34.5 81.5t-82.5 34.5q-46 0 -79 -34.5t-33 -81.5t33 -81.5t79 -34.5z" />
    <glyph glyph-name="nine" unicode="9" horiz-adv-x="513" 
d="M473 492q0 -54 -23 -100l-197 -400l-67 38l121 250q-25 -6 -54 -6q-89 0 -151 63.5t-62 154.5t62 153.5t151 62.5q92 0 156 -62.5t64 -153.5zM122 492q0 -56 38.5 -96t93.5 -40q56 0 96.5 40t40.5 96t-40 95t-97 39q-55 0 -93.5 -39t-38.5 -95z" />
    <glyph glyph-name="colon" unicode=":" horiz-adv-x="282" 
d="M182 460v-82h-82v82h82zM182 82v-82h-82v82h82z" />
    <glyph glyph-name="semicolon" unicode=";" horiz-adv-x="282" 
d="M182 460v-82h-82v82h82zM186 80l-8 -165l-82 4l8 165z" />
    <glyph glyph-name="less" unicode="&#x3c;" horiz-adv-x="674" 
d="M100 210v47l434 250l40 -70l-353 -204l353 -203l-40 -70z" />
    <glyph glyph-name="equal" unicode="=" horiz-adv-x="700" 
d="M600 304h-500v80h500v-80zM600 75h-500v80h500v-80z" />
    <glyph glyph-name="greater" unicode="&#x3e;" horiz-adv-x="674" 
d="M574 210l-434 -250l-40 70l353 203l-353 204l40 70l434 -250v-47z" />
    <glyph glyph-name="question" unicode="?" horiz-adv-x="579" 
d="M295 800q83 0 133.5 -56t50.5 -132q0 -69 -41 -140l-70 41q28 49 28 97q0 42 -27 74t-72 32q-76 0 -128 -88l-69 39q78 133 195 133zM297 328q0 57 48 140l70 -41q-36 -63 -36 -99v-96h-82v96zM297 0v82h82v-82h-82z" />
    <glyph glyph-name="at" unicode="@" horiz-adv-x="781" 
d="M400 709q147 0 244 -104t97 -255v-11q0 -47 -33 -81.5t-79 -34.5q-36 0 -65 20q-27 -44 -70.5 -72.5t-92.5 -28.5q-83 0 -141.5 57.5t-58.5 139.5q0 83 57.5 140.5t142.5 57.5q80 0 136.5 -58t56.5 -140q0 -13 10 -23t23 -10t22.5 9.5t9.5 23.5v11q0 115 -75 196.5
t-185 81.5q-114 0 -194.5 -81t-80.5 -197q0 -115 80.5 -196t194.5 -81t194 82l54 -63q-103 -100 -247 -100q-151 0 -255.5 103.5t-104.5 254.5q0 152 104.5 255.5t255.5 103.5zM400 223q46 0 79 34.5t33 81.5t-33 81.5t-79 34.5q-48 0 -82.5 -34.5t-34.5 -81.5t34.5 -81.5
t82.5 -34.5z" />
    <glyph glyph-name="A" unicode="A" horiz-adv-x="648" 
d="M559 -8l-86 213l-304 -17l-80 -196l-74 30l65 162l-48 -3l-4 80l86 5l179 442l74 -30l-165 -408l239 13l-103 256l74 30l221 -547z" />
    <glyph glyph-name="B" unicode="B" horiz-adv-x="542" 
d="M80 0v700h80v-700h-80zM386 350q42 -28 64 -69t22 -86q0 -80 -62.5 -137.5t-174.5 -57.5v80q71 0 111.5 34.5t40.5 81.5q0 46 -40 80t-112 34v80q71 0 111.5 34.5t40.5 81.5q0 46 -40 80t-112 34v80q112 0 174.5 -58t62.5 -137q0 -99 -86 -155z" />
    <glyph glyph-name="C" unicode="C" horiz-adv-x="570" 
d="M510 3q-44 -11 -88 -11q-148 0 -252.5 105t-104.5 254t104.5 253t252.5 104l11 -84q-46 0 -93 -15.5t-91 -46t-72 -86t-28 -125.5q0 -114 80 -194.5t193 -80.5q41 0 77 11z" />
    <glyph glyph-name="D" unicode="D" horiz-adv-x="709" 
d="M199 697q44 11 88 11q148 0 252.5 -105t104.5 -254t-104 -253t-253 -104l-11 84q46 0 93 15.5t91 46t72 86t28 125.5q0 114 -80 194.5t-193 80.5q-41 0 -77 -11zM150 0h-80v700h80v-700z" />
    <glyph glyph-name="E" unicode="E" 
d="M150 0h-80v700h80v-700zM510 620h-310v80h310v-80zM472 327l-270 -14l-4 80l270 14zM510 0h-310v80h310v-80z" />
    <glyph glyph-name="F" unicode="F" 
d="M150 0h-80v700h80v-700zM510 620h-310v80h310v-80zM472 327l-270 -14l-4 80l270 14z" />
    <glyph glyph-name="G" unicode="G" horiz-adv-x="730" 
d="M510 3q-44 -11 -88 -11q-148 0 -252.5 105t-104.5 254t104.5 253t252.5 104l11 -84q-46 0 -93 -15.5t-91 -46t-72 -86t-28 -125.5q0 -114 80 -194.5t193 -80.5q41 0 77 11zM680 0h-80v285h-237v80h317v-365z" />
    <glyph glyph-name="H" unicode="H" horiz-adv-x="660" 
d="M70 0v700h80v-700h-80zM652 302l-52 -3v-299h-80v295l-318 -17l-4 80l322 17v325h80v-321l48 3z" />
    <glyph glyph-name="I" unicode="I" horiz-adv-x="220" 
d="M150 0h-80v700h80v-700z" />
    <glyph glyph-name="J" unicode="J" horiz-adv-x="605" 
d="M460 700h80v-470q0 -100 -68.5 -169t-166.5 -69q-101 0 -170.5 68.5t-69.5 169.5h80q0 -64 47 -109t112 -45q64 0 110 45t46 109v470zM410 700v-80h-223v80h223z" />
    <glyph glyph-name="K" unicode="K" horiz-adv-x="597" 
d="M543 654l-269 -289l-59 54l269 289zM150 0h-80v700h80v-700zM582 50l-55 -58l-312 291l55 58z" />
    <glyph glyph-name="L" unicode="L" horiz-adv-x="530" 
d="M150 0h-80v700h80v-700zM510 0h-310v80h310v-80z" />
    <glyph glyph-name="M" unicode="M" horiz-adv-x="862" 
d="M150 0h-80v700h80v-700zM712 0v700h80v-700h-80zM431 189l-256 340l64 48l192 -255l192 255l64 -48z" />
    <glyph glyph-name="N" unicode="N" horiz-adv-x="670" 
d="M150 0h-80v700h80v-700zM600 0h-80v700h80v-700zM496 236l-65 -47l-256 340l64 48z" />
    <glyph glyph-name="O" unicode="O" horiz-adv-x="793" 
d="M400 -8q148 0 250.5 103.5t102.5 254.5q0 150 -102.5 254.5t-250.5 104.5q-151 0 -255.5 -103.5t-104.5 -255.5q0 -151 104.5 -254.5t255.5 -103.5zM399 73q-114 0 -194.5 81t-80.5 196q0 116 80.5 197t194.5 81q112 0 192.5 -82.5t80.5 -195.5q0 -115 -80.5 -196
t-192.5 -81z" />
    <glyph glyph-name="P" unicode="P" horiz-adv-x="520" 
d="M80 0v700h80v-700h-80zM475 511q4 -80 -55.5 -140.5t-171.5 -66.5l-4 80q71 4 109.5 40.5t36.5 83.5q-2 46 -44 78t-114 28l-4 80q112 6 177.5 -49t69.5 -134z" />
    <glyph glyph-name="Q" unicode="Q" horiz-adv-x="793" 
d="M765 50l-55 -58l-85 80q-98 -80 -225 -80q-151 0 -255.5 103.5t-104.5 254.5q0 152 104.5 255.5t255.5 103.5q148 0 250.5 -104.5t102.5 -254.5q0 -124 -73 -221zM399 73q90 0 164 56l-165 154l55 58l166 -155q53 74 53 164q0 113 -80.5 195.5t-192.5 82.5
q-114 0 -194.5 -81t-80.5 -197q0 -115 80.5 -196t194.5 -81z" />
    <glyph glyph-name="R" unicode="R" horiz-adv-x="532" 
d="M70 0v700h80v-700h-80zM466 511q4 -80 -55.5 -140.5t-171.5 -66.5l-4 80q71 4 109.5 40.5t36.5 83.5q-2 46 -44 78t-114 28l-4 80q112 6 177.5 -49t69.5 -134zM349 282l138 -251l-70 -39l-138 252z" />
    <glyph glyph-name="S" unicode="S" horiz-adv-x="452" 
d="M177 331q-67 39 -99.5 91t-32.5 106q0 72 52 127t135 55q68 0 140 -42l-40 -68q-50 28 -93 28q-51 0 -80.5 -29.5t-29.5 -72.5q0 -74 88 -125zM275 371q67 -39 99.5 -91t32.5 -106q0 -72 -52 -127t-135 -55q-68 0 -140 42l40 68q50 -28 93 -28q51 0 80.5 29.5t29.5 72.5
q0 74 -88 125z" />
    <glyph glyph-name="T" unicode="T" 
d="M535 700v-80h-510v80h510zM325 560v-560h-80v560h80z" />
    <glyph glyph-name="U" unicode="U" horiz-adv-x="605" 
d="M460 700h80v-470q0 -100 -68.5 -169t-166.5 -69q-101 0 -170.5 68.5t-69.5 169.5v470h80v-470q0 -64 47 -109t112 -45q64 0 110 45t46 109v470z" />
    <glyph glyph-name="V" unicode="V" horiz-adv-x="648" 
d="M89 708l278 -686l-74 -30l-278 686zM559 708l74 -30l-221 -547l-74 30z" />
    <glyph glyph-name="W" unicode="W" horiz-adv-x="1180" 
d="M15 678l74 30l278 -686l-74 -30zM1091 708l74 -30l-221 -547l-74 30zM633 678l266 -656l-74 -30l-235 580l-178 -441l-74 30l209 517l9 22h68l9 -21v-1z" />
    <glyph glyph-name="X" unicode="X" horiz-adv-x="650" 
d="M635 44l-62 -52l-248 295l-248 -295l-62 52l257 306l-257 306l62 52l248 -295l248 295l62 -52l-257 -306z" />
    <glyph glyph-name="Y" unicode="Y" horiz-adv-x="550" 
d="M15 37l453 671l67 -45l-453 -671zM191 403l-176 260l67 45l176 -260z" />
    <glyph glyph-name="Z" unicode="Z" horiz-adv-x="603" 
d="M553 666l-435 -674l-68 43l436 674zM411 620h-361v80h361v-80zM544 0h-352v80h352v-80z" />
    <glyph glyph-name="bracketleft" unicode="[" horiz-adv-x="405" 
d="M305 620h-125v-540h125v-80h-205v700h205v-80z" />
    <glyph glyph-name="backslash" unicode="\" horiz-adv-x="407" 
d="M392 37l-67 -45l-310 671l67 45z" />
    <glyph glyph-name="bracketright" unicode="]" horiz-adv-x="405" 
d="M305 700v-700h-205v80h125v540h-125v80h205z" />
    <glyph glyph-name="underscore" unicode="_" horiz-adv-x="470" 
d="M460 0h-450v80h450v-80z" />
    <glyph glyph-name="grave" unicode="`" horiz-adv-x="376" 
d="M50 613l27 75l249 -90l-28 -76z" />
    <glyph glyph-name="a" unicode="a" horiz-adv-x="649" 
d="M579 -3l-79 -5l-9 174q-20 -74 -80 -120t-138 -46q-97 0 -165 66.5t-68 162.5q0 98 67 164.5t166 66.5q71 0 128 -40t82 -104l-8 147l80 5zM272 82q61 0 103 42.5t42 104.5t-42 105.5t-103 43.5q-62 0 -106 -43.5t-44 -105.5t43.5 -104.5t106.5 -42.5z" />
    <glyph glyph-name="b" unicode="b" horiz-adv-x="644" 
d="M378 460q94 0 160 -67.5t66 -163.5q0 -97 -65.5 -163t-160.5 -66q-75 0 -134.5 41t-84.5 108l8 -148l-80 -5l-42 799l80 5l27 -513q19 77 81 125t145 48zM377 82q61 0 103 42.5t42 104.5t-42 105.5t-103 43.5q-62 0 -106 -43.5t-44 -105.5t43.5 -104.5t106.5 -42.5z" />
    <glyph glyph-name="c" unicode="c" horiz-adv-x="358" 
d="M311 79l7 -84q-18 -3 -38 -3q-101 0 -170.5 69t-69.5 169q0 101 69.5 169.5t170.5 68.5l6 -84h-7q-65 0 -110 -45t-45 -109t45 -109t110 -45q17 0 32 3z" />
    <glyph glyph-name="d" unicode="d" horiz-adv-x="629" 
d="M579 1l-80 -5l-9 168q-20 -73 -80 -118.5t-137 -45.5q-97 0 -165 66.5t-68 162.5q0 98 67 164.5t166 66.5q70 0 126.5 -39.5t82.5 -103.5l-25 478l80 5zM272 82q61 0 103 42.5t42 104.5t-42 105.5t-103 43.5q-62 0 -106 -43.5t-44 -105.5t43.5 -104.5t106.5 -42.5z" />
    <glyph glyph-name="e" unicode="e" horiz-adv-x="555" 
d="M194 190v80h232q-13 50 -54 82t-93 32q-65 0 -110 -45t-45 -109t45 -109t110 -45q17 0 32 3l7 -84q-18 -3 -38 -3q-101 0 -170.5 69t-69.5 169q0 101 69.5 169.5t170.5 68.5q98 0 166.5 -69t68.5 -169v-40h-321z" />
    <glyph glyph-name="f" unicode="f" horiz-adv-x="279" 
d="M304 716q-65 0 -112.5 -45t-47.5 -109v-100l79 4l4 -80l-83 -4v-390h-80v385l-60 -3l-4 80l64 3v105q0 101 69.5 169.5t170.5 68.5v-84z" />
    <glyph glyph-name="g" unicode="g" horiz-adv-x="624" 
d="M489 460h80v-470q0 -101 -69.5 -169.5t-170.5 -68.5v84q65 0 112.5 45t47.5 109v170q-21 -71 -80.5 -115.5t-135.5 -44.5q-97 0 -165 66.5t-68 162.5q0 98 67 164.5t166 66.5q76 0 135.5 -45.5t80.5 -116.5v162zM272 82q61 0 103 42.5t42 104.5t-42 105.5t-103 43.5
q-62 0 -106 -43.5t-44 -105.5t43.5 -104.5t106.5 -42.5z" />
    <glyph glyph-name="h" unicode="h" horiz-adv-x="545" 
d="M235 468q98 0 166.5 -69t68.5 -169v-230h-80v230q0 64 -46 109t-109 45h-75v-384h-80v800h80v-332h75z" />
    <glyph glyph-name="i" unicode="i" horiz-adv-x="311" 
d="M137 700v-82h-82v82h82zM136 230q0 -64 47.5 -109t112.5 -45v-84q-101 0 -170.5 68.5t-69.5 169.5v230h80v-230z" />
    <glyph glyph-name="j" unicode="j" horiz-adv-x="311" 
d="M174 700h82v-82h-82v82zM175 -10v470h80v-470q0 -101 -69.5 -169.5t-170.5 -68.5v84q65 0 112.5 45t47.5 109z" />
    <glyph glyph-name="k" unicode="k" horiz-adv-x="481" 
d="M150 0h-80v800h80v-800zM427 414l-156 -168l-59 54l156 168zM466 50l-55 -58l-195 181l55 58z" />
    <glyph glyph-name="l" unicode="l" horiz-adv-x="310" 
d="M135 230q0 -64 47.5 -109t112.5 -45v-84q-101 0 -170.5 68.5t-69.5 169.5v570h80v-570z" />
    <glyph glyph-name="m" unicode="m" horiz-adv-x="855" 
d="M235 468q98 0 166.5 -69t68.5 -169v-230h-80v230q0 64 -46 109t-109 45h-75v-384h-80v468h155zM545 468q98 0 166.5 -69t68.5 -169v-230h-80v230q0 64 -46 109t-109 45h-75v84h75z" />
    <glyph glyph-name="n" unicode="n" horiz-adv-x="545" 
d="M235 468q98 0 166.5 -69t68.5 -169v-230h-80v230q0 64 -46 109t-109 45h-75v-384h-80v468h155z" />
    <glyph glyph-name="o" unicode="o" horiz-adv-x="555" 
d="M280 -8q98 0 166.5 69t68.5 169t-68.5 169t-166.5 69q-101 0 -170.5 -68.5t-69.5 -169.5q0 -100 69.5 -169t170.5 -69zM279 74q-65 0 -111 45.5t-46 110.5t46 110.5t111 45.5q64 0 109 -45.5t45 -110.5t-45 -110.5t-109 -45.5z" />
    <glyph glyph-name="p" unicode="p" horiz-adv-x="631" 
d="M365 460q94 0 160 -67.5t66 -163.5q0 -97 -65.5 -163t-160.5 -66q-75 0 -134.5 41t-84.5 108l20 -392l-79 -5l-37 711l80 5l9 -180q19 76 81 124t145 48zM364 82q61 0 103 42.5t42 104.5t-42 105.5t-103 43.5q-62 0 -106 -43.5t-44 -105.5t43.5 -104.5t106.5 -42.5z" />
    <glyph glyph-name="q" unicode="q" horiz-adv-x="656" 
d="M591 -243l-79 -5l-22 413q-20 -73 -80 -119t-137 -46q-97 0 -165 66.5t-68 162.5q0 98 67 164.5t166 66.5q71 0 127.5 -39.5t82.5 -104.5l-8 147l80 5zM272 82q61 0 103 42.5t42 104.5t-42 105.5t-103 43.5q-62 0 -106 -43.5t-44 -105.5t43.5 -104.5t106.5 -42.5z" />
    <glyph glyph-name="r" unicode="r" horiz-adv-x="310" 
d="M55 230q0 101 69.5 169.5t170.5 68.5v-84q-65 0 -112.5 -45t-47.5 -109v-230h-80v230z" />
    <glyph glyph-name="s" unicode="s" horiz-adv-x="469" 
d="M424 230q0 -100 -68.5 -169t-167.5 -69q-30 0 -62 8l22 81q22 -5 40 -5q46 0 85 25.5t58 66.5l-286 62q0 100 68.5 169t167.5 69q30 0 62 -8l-22 -81q-22 5 -40 5q-46 0 -85 -25.5t-58 -66.5z" />
    <glyph glyph-name="t" unicode="t" horiz-adv-x="310" 
d="M135 230q0 -64 47.5 -109t112.5 -45v-84q-101 0 -170.5 68.5t-69.5 169.5v147l-60 -3l-4 80l64 3v193h80v-188l79 4l4 -80l-83 -4v-152z" />
    <glyph glyph-name="u" unicode="u" 
d="M405 460h80v-230q0 -104 -54.5 -171t-151.5 -67q-96 0 -150 66.5t-54 171.5v230h80v-230q0 -68 31.5 -111t93.5 -43q61 0 93 43t32 111v230z" />
    <glyph glyph-name="v" unicode="v" horiz-adv-x="442" 
d="M10 439l74 29l180 -447l-74 -29zM432 439l-124 -308l-74 29l124 308z" />
    <glyph glyph-name="w" unicode="w" horiz-adv-x="794" 
d="M10 439l74 29l180 -447l-74 -29zM710 468l74 -29l-124 -308l-74 29zM355 460h85l176 -439l-74 -29l-145 361l-89 -222l-74 29z" />
    <glyph glyph-name="x" unicode="x" horiz-adv-x="461" 
d="M451 44l-59 -52l-161 179l-162 -179l-59 52l167 186l-167 186l60 52l161 -179l160 179l60 -52l-167 -186z" />
    <glyph glyph-name="y" unicode="y" horiz-adv-x="442" 
d="M157 -240l-74 29l275 680l74 -30zM208 160l-74 -29l-124 308l74 29z" />
    <glyph glyph-name="z" unicode="z" horiz-adv-x="511" 
d="M481 414l-392 -422l-59 54l392 422zM315 380h-260v80h260v-80zM450 0h-260v80h260v-80z" />
    <glyph glyph-name="braceleft" unicode="{" horiz-adv-x="600" 
d="M340 562q0 -61 -27 -112.5t-74 -83.5q47 -32 74 -83.5t27 -112.5q0 -64 47.5 -109t112.5 -45v-84q-101 0 -170.5 68.5t-69.5 169.5q0 64 -47.5 109t-112.5 45v84q65 0 112.5 45t47.5 109q0 101 69.5 169.5t170.5 68.5v-84q-65 0 -112.5 -45t-47.5 -109z" />
    <glyph glyph-name="bar" unicode="|" horiz-adv-x="282" 
d="M182 800v-1000h-82v1000h82z" />
    <glyph glyph-name="braceright" unicode="}" horiz-adv-x="600" 
d="M340 562q0 -64 47.5 -109t112.5 -45v-84q-65 0 -112.5 -45t-47.5 -109q0 -101 -69.5 -169.5t-170.5 -68.5v84q65 0 112.5 45t47.5 109q0 61 27 112.5t74 83.5q-47 32 -74 83.5t-27 112.5q0 64 -47.5 109t-112.5 45v84q101 0 170.5 -68.5t69.5 -169.5z" />
    <glyph glyph-name="asciitilde" unicode="~" horiz-adv-x="729" 
d="M464 326q95 0 165 -104l-69 -49q-49 70 -102 70q-33 0 -71 -26q-62 -44 -122 -44q-95 0 -165 104l69 49q49 -70 102 -70q33 0 71 26q62 44 122 44z" />
    <glyph glyph-name="exclamdown" unicode="&#xa1;" horiz-adv-x="600" 
d="M182 518h-82v82h82v-82zM182 -200h-82v568h82v-568z" />
    <glyph glyph-name="cent" unicode="&#xa2;" horiz-adv-x="544" 
d="M421 116l53 -69q-49 -42 -115 -52v-101h-82v102q-85 14 -141 79.5t-56 154.5q0 90 55.5 155t141.5 79v102h82v-101q65 -10 115 -54l-53 -67q-25 24 -62 35v-75h-82v74q-49 -14 -81 -54.5t-32 -93.5t32 -93.5t81 -54.5v74h82v-73q37 13 62 33z" />
    <glyph glyph-name="sterling" unicode="&#xa3;" horiz-adv-x="546" 
d="M192 80h319v-80h-476v80q6 0 22 5.5t39.5 19t44.5 32t36 48t15 63.5q0 25 -7 43h-101v80h52q-24 28 -35 44t-23 47.5t-12 65.5q0 88 60 134t147 46q67 0 112 -29.5t100 -97.5l-54 -50q-30 49 -74 72.5t-91 23.5q-48 0 -82 -27t-34 -76q0 -30 12.5 -53.5t39.5 -54.5
t37 -45h155v-80h-121q3 -16 3 -34q0 -100 -84 -177z" />
    <glyph glyph-name="currency" unicode="&#xa4;" horiz-adv-x="617" 
d="M545 350q0 -99 -68 -169l90 -91l-58 -58l-100 101q-48 -21 -99 -21q-54 0 -101 22l-101 -102l-58 58l90 91q-70 68 -70 169q0 102 69 169l-89 90l58 58l100 -101q49 22 102 22q52 0 99 -22l100 101l58 -58l-90 -91q68 -68 68 -168zM309 196q64 0 108 44.5t44 109.5
q0 64 -44.5 109t-107.5 45q-65 0 -110 -45t-45 -109t45 -109t110 -45z" />
    <glyph glyph-name="yen" unicode="&#xa5;" horiz-adv-x="567" 
d="M389 420l75 3l4 -80l-369 -14l-4 80l89 3l-169 251l67 45l197 -292h10l196 292l67 -45zM464 265l4 -80l-150 -6v-179h-80v176l-139 -5l-4 80l143 5v1h15z" />
    <glyph glyph-name="brokenbar" unicode="&#xa6;" horiz-adv-x="282" 
d="M100 375v340h82v-340h-82zM182 225v-340h-82v340h82z" />
    <glyph glyph-name="section" unicode="&#xa7;" horiz-adv-x="612" 
d="M512 304q0 -46 -24 -89t-65 -68q39 -46 39 -104q0 -72 -52 -127t-135 -55q-68 0 -140 42l40 68q50 -28 93 -28q51 0 80.5 29.5t29.5 72.5q0 31 -20 54t-68 51l-58 30q-69 40 -100.5 82.5t-31.5 94.5q0 47 24 89.5t66 66.5q-40 47 -40 105q0 72 52 127t135 55
q68 0 140 -42l-40 -68q-50 28 -93 28q-51 0 -80.5 -29.5t-29.5 -72.5q0 -31 20 -54t68 -51l58 -30q69 -40 100.5 -82.5t31.5 -94.5zM272 250l58 -30q14 -8 20 -12q37 9 57.5 36t20.5 62q0 31 -20 54t-68 51l-58 30q-14 8 -21 13q-36 -9 -56.5 -36.5t-20.5 -62.5
q0 -31 20 -54t68 -51z" />
    <glyph glyph-name="dieresis" unicode="&#xa8;" horiz-adv-x="387" 
d="M50 700h82v-82h-82v82zM255 700h82v-82h-82v82z" />
    <glyph glyph-name="copyright" unicode="&#xa9;" horiz-adv-x="793" 
d="M400 -8q148 0 250.5 103.5t102.5 254.5q0 150 -102.5 254.5t-250.5 104.5q-151 0 -255.5 -103.5t-104.5 -255.5q0 -151 104.5 -254.5t255.5 -103.5zM399 73q-114 0 -194.5 81t-80.5 196q0 116 80.5 197t194.5 81q112 0 192.5 -82.5t80.5 -195.5q0 -115 -80.5 -196
t-192.5 -81zM496 199l7 -84q-18 -3 -38 -3q-101 0 -170.5 69t-69.5 169q0 101 69.5 169.5t170.5 68.5l6 -84h-7q-65 0 -110 -45t-45 -109t45 -109t110 -45q17 0 32 3z" />
    <glyph glyph-name="guillemotleft" unicode="&#xab;" horiz-adv-x="689" 
d="M388 454l-224 -224l224 -224l-57 -57l-281 281l281 281zM639 454l-224 -224l224 -224l-57 -57l-281 281l281 281z" />
    <glyph glyph-name="registered" unicode="&#xae;" horiz-adv-x="793" 
d="M400 709q148 0 250.5 -104.5t102.5 -254.5q0 -151 -102.5 -254.5t-250.5 -103.5q-151 0 -255.5 103.5t-104.5 254.5q0 152 104.5 255.5t255.5 103.5zM399 73q112 0 192.5 81t80.5 196q0 113 -80.5 195.5t-192.5 82.5q-114 0 -194.5 -81t-80.5 -197q0 -115 80.5 -196
t194.5 -81zM253 144v423h80v-423h-80zM585 399q0 -88 -66 -133l50 -93l-70 -39l-55 101q-30 -6 -61 -6v81q120 0 120 89q0 50 -32.5 68t-87.5 18v82q87 0 144.5 -41.5t57.5 -126.5z" />
    <glyph glyph-name="macron" unicode="&#xaf;" horiz-adv-x="452" 
d="M402 560h-352v80h352v-80z" />
    <glyph glyph-name="degree" unicode="&#xb0;" horiz-adv-x="393" 
d="M195 800q62 0 105 -43t43 -104t-43 -104t-105 -43q-60 0 -102.5 43t-42.5 104q0 62 42 104.5t103 42.5zM196 729q-32 0 -53.5 -22t-21.5 -54t22 -54t53 -22q32 0 54 22.5t22 53.5t-22 53.5t-54 22.5z" />
    <glyph glyph-name="plusminus" unicode="&#xb1;" horiz-adv-x="700" 
d="M390 350h210v-80h-210v-140h-80v140h-210v80h210v140h80v-140zM100 0v80h500v-80h-500z" />
    <glyph glyph-name="acute" unicode="&#xb4;" horiz-adv-x="376" 
d="M326 613l-248 -91l-28 76l249 90z" />
    <glyph glyph-name="paragraph" unicode="&#xb6;" horiz-adv-x="712" 
d="M442 700v-700h-80v620h-100q-72 0 -112 -34t-40 -80q0 -47 40.5 -81.5t111.5 -34.5h50v-80h-50q-112 -1 -174.5 57t-62.5 138q-1 79 61.5 137t175.5 58h180zM562 700h80v-700h-80v700z" />
    <glyph glyph-name="periodcentered" unicode="&#xb7;" horiz-adv-x="282" 
d="M182 270v-82h-82v82h82z" />
    <glyph glyph-name="cedilla" unicode="&#xb8;" horiz-adv-x="239" 
d="M99 -135q14 0 24.5 10.5t10.5 24.5t-10.5 24.5t-24.5 10.5v65q41 0 70.5 -30t29.5 -70q0 -41 -29.5 -70.5t-70.5 -29.5v65z" />
    <glyph glyph-name="guillemotright" unicode="&#xbb;" horiz-adv-x="689" 
d="M388 230l-281 -281l-57 57l224 224l-224 224l57 57zM639 230l-281 -281l-57 57l224 224l-224 224l57 57z" />
    <glyph glyph-name="questiondown" unicode="&#xbf;" horiz-adv-x="579" 
d="M282 600v-82h-82v82h82zM282 272q0 -57 -48 -140l-70 41q36 63 36 99v96h82v-96zM410 -28l69 -39q-78 -133 -195 -133q-83 0 -133.5 56t-50.5 132q0 69 41 140l70 -41q-28 -49 -28 -97q0 -42 27 -74t72 -32q76 0 128 88z" />
    <glyph glyph-name="Agrave" unicode="&#xc0;" horiz-adv-x="648" 
d="M486 823l-28 -76l-248 91l27 75zM559 -8l-86 213l-304 -17l-80 -196l-74 30l65 162l-48 -3l-4 80l86 5l179 442l74 -30l-165 -408l239 13l-103 256l74 30l221 -547z" />
    <glyph glyph-name="Aacute" unicode="&#xc1;" horiz-adv-x="648" 
d="M442 838l-248 -91l-28 76l249 90zM559 -8l-86 213l-304 -17l-80 -196l-74 30l65 162l-48 -3l-4 80l86 5l179 442l74 -30l-165 -408l239 13l-103 256l74 30l221 -547z" />
    <glyph glyph-name="Acircumflex" unicode="&#xc2;" horiz-adv-x="648" 
d="M332 858l-132 -132l-58 58l190 190l190 -190l-58 -58zM559 -8l-86 213l-304 -17l-80 -196l-74 30l65 162l-48 -3l-4 80l86 5l179 442l74 -30l-165 -408l239 13l-103 256l74 30l221 -547z" />
    <glyph glyph-name="Atilde" unicode="&#xc3;" horiz-adv-x="648" 
d="M239 784q-53 0 -102 -70l-69 49q70 104 165 104q60 0 122 -44q38 -26 71 -26q53 0 102 70l69 -49q-70 -104 -165 -104q-60 0 -122 44q-38 26 -71 26zM559 -8l-86 213l-304 -17l-80 -196l-74 30l65 162l-48 -3l-4 80l86 5l179 442l74 -30l-165 -408l239 13l-103 256l74 30
l221 -547z" />
    <glyph glyph-name="Adieresis" unicode="&#xc4;" horiz-adv-x="648" 
d="M274 882v-82h-82v82h82zM479 882v-82h-82v82h82zM559 -8l-86 213l-304 -17l-80 -196l-74 30l65 162l-48 -3l-4 80l86 5l179 442l74 -30l-165 -408l239 13l-103 256l74 30l221 -547z" />
    <glyph glyph-name="Aring" unicode="&#xc5;" horiz-adv-x="648" 
d="M559 -8l-86 213l-304 -17l-80 -196l-74 30l65 162l-48 -3l-4 80l86 5l152 376q-43 14 -70.5 52.5t-27.5 86.5q0 62 42 104.5t103 42.5q62 0 105 -43t43 -104q0 -51 -31 -90.5t-79 -51.5l-149 -369l239 13l-103 256l74 30l221 -547zM239 781q0 -26 15 -46t39 -27
q11 -3 21 -3q32 0 54 22.5t22 53.5t-22 53.5t-54 22.5t-53.5 -22t-21.5 -54z" />
    <glyph glyph-name="AE" unicode="&#xc6;" horiz-adv-x="911" 
d="M373 279l4 -80l-209 -11l-79 -196l-74 30l65 162l-48 -3l-4 80l86 4l179 443l74 -30l-165 -408zM421 0v700h80v-700h-80zM551 700h310v-80h-310v80zM823 327l-270 -14l-4 80l270 14zM551 0v80h310v-80h-310z" />
    <glyph glyph-name="Ccedilla" unicode="&#xc7;" horiz-adv-x="570" 
d="M416 -8q27 -11 44.5 -36.5t17.5 -55.5q0 -41 -29.5 -70.5t-70.5 -29.5v65q14 0 24.5 10.5t10.5 24.5t-10.5 24.5t-24.5 10.5v60q-133 16 -223 117.5t-90 238.5q0 149 104.5 253t252.5 104l11 -84q-46 0 -93 -15.5t-91 -46t-72 -86t-28 -125.5q0 -114 80 -194.5t193 -80.5
q41 0 77 11l11 -84q-44 -11 -88 -11h-6z" />
    <glyph glyph-name="Egrave" unicode="&#xc8;" 
d="M160 863l27 75l249 -90l-28 -76zM150 0h-80v700h80v-700zM510 620h-310v80h310v-80zM472 327l-270 -14l-4 80l270 14zM510 0h-310v80h310v-80z" />
    <glyph glyph-name="Eacute" unicode="&#xc9;" 
d="M396 838l-248 -91l-28 76l249 90zM150 0h-80v700h80v-700zM510 620h-310v80h310v-80zM472 327l-270 -14l-4 80l270 14zM510 0h-310v80h310v-80z" />
    <glyph glyph-name="Ecircumflex" unicode="&#xca;" 
d="M440 751l-132 132l-132 -132l-58 58l190 190l190 -190zM70 0v700h80v-700h-80zM200 700h310v-80h-310v80zM472 327l-270 -14l-4 80l270 14zM200 0v80h310v-80h-310z" />
    <glyph glyph-name="Edieresis" unicode="&#xcb;" 
d="M149 882h82v-82h-82v82zM354 882h82v-82h-82v82zM150 0h-80v700h80v-700zM510 620h-310v80h310v-80zM472 327l-270 -14l-4 80l270 14zM510 0h-310v80h310v-80z" />
    <glyph glyph-name="Igrave" unicode="&#xcc;" horiz-adv-x="220" 
d="M-20 838l27 75l249 -90l-28 -76zM150 0h-80v700h80v-700z" />
    <glyph glyph-name="Iacute" unicode="&#xcd;" horiz-adv-x="220" 
d="M236 838l-248 -91l-28 76l249 90zM150 0h-80v700h80v-700z" />
    <glyph glyph-name="Icircumflex" unicode="&#xce;" horiz-adv-x="220" 
d="M302 784l-58 -58l-132 132l-132 -132l-58 58l190 190zM70 0v700h80v-700h-80z" />
    <glyph glyph-name="Idieresis" unicode="&#xcf;" horiz-adv-x="220" 
d="M-35 882h82v-82h-82v82zM170 882h82v-82h-82v82zM150 0h-80v700h80v-700z" />
    <glyph glyph-name="Eth" unicode="&#xd0;" horiz-adv-x="709" 
d="M287 708q148 0 252.5 -105t104.5 -254t-104 -253t-253 -104l-11 84q46 0 93 15.5t91 46t72 86t28 125.5q0 114 -80 194.5t-193 80.5q-41 0 -77 -11l-11 84q44 11 88 11zM292 290h-142v-290h-80v290h-130v80h130v330h80v-330h142v-80z" />
    <glyph glyph-name="Ntilde" unicode="&#xd1;" horiz-adv-x="670" 
d="M541 927l69 -49q-70 -104 -165 -104q-60 0 -122 44q-38 26 -71 26q-53 0 -102 -70l-69 49q70 104 165 104q60 0 122 -44q38 -26 71 -26q53 0 102 70zM150 0h-80v700h80v-700zM600 0h-80v700h80v-700zM496 236l-65 -47l-256 340l64 48z" />
    <glyph glyph-name="Ograve" unicode="&#xd2;" horiz-adv-x="793" 
d="M300 838l27 75l249 -90l-28 -76zM400 -8q148 0 250.5 103.5t102.5 254.5q0 150 -102.5 254.5t-250.5 104.5q-151 0 -255.5 -103.5t-104.5 -255.5q0 -151 104.5 -254.5t255.5 -103.5zM399 73q-114 0 -194.5 81t-80.5 196q0 116 80.5 197t194.5 81q112 0 192.5 -82.5
t80.5 -195.5q0 -115 -80.5 -196t-192.5 -81z" />
    <glyph glyph-name="Oacute" unicode="&#xd3;" horiz-adv-x="793" 
d="M490 838l-248 -91l-28 76l249 90zM400 -8q148 0 250.5 103.5t102.5 254.5q0 150 -102.5 254.5t-250.5 104.5q-151 0 -255.5 -103.5t-104.5 -255.5q0 -151 104.5 -254.5t255.5 -103.5zM399 73q-114 0 -194.5 81t-80.5 196q0 116 80.5 197t194.5 81q112 0 192.5 -82.5
t80.5 -195.5q0 -115 -80.5 -196t-192.5 -81z" />
    <glyph glyph-name="Ocircumflex" unicode="&#xd4;" horiz-adv-x="793" 
d="M406 883l-132 -132l-58 58l190 190l190 -190l-58 -58zM400 709q148 0 250.5 -104.5t102.5 -254.5q0 -151 -102.5 -254.5t-250.5 -103.5q-151 0 -255.5 103.5t-104.5 254.5q0 152 104.5 255.5t255.5 103.5zM399 73q112 0 192.5 81t80.5 196q0 113 -80.5 195.5t-192.5 82.5
q-114 0 -194.5 -81t-80.5 -197q0 -115 80.5 -196t194.5 -81z" />
    <glyph glyph-name="Otilde" unicode="&#xd5;" horiz-adv-x="793" 
d="M601 927l69 -49q-70 -104 -165 -104q-60 0 -122 44q-38 26 -71 26q-53 0 -102 -70l-69 49q70 104 165 104q60 0 122 -44q38 -26 71 -26q53 0 102 70zM400 -8q148 0 250.5 103.5t102.5 254.5q0 150 -102.5 254.5t-250.5 104.5q-151 0 -255.5 -103.5t-104.5 -255.5
q0 -151 104.5 -254.5t255.5 -103.5zM399 73q-114 0 -194.5 81t-80.5 196q0 116 80.5 197t194.5 81q112 0 192.5 -82.5t80.5 -195.5q0 -115 -80.5 -196t-192.5 -81z" />
    <glyph glyph-name="Odieresis" unicode="&#xd6;" horiz-adv-x="793" 
d="M250 882h82v-82h-82v82zM455 882h82v-82h-82v82zM400 -8q148 0 250.5 103.5t102.5 254.5q0 150 -102.5 254.5t-250.5 104.5q-151 0 -255.5 -103.5t-104.5 -255.5q0 -151 104.5 -254.5t255.5 -103.5zM399 73q-114 0 -194.5 81t-80.5 196q0 116 80.5 197t194.5 81
q112 0 192.5 -82.5t80.5 -195.5q0 -115 -80.5 -196t-192.5 -81z" />
    <glyph glyph-name="multiply" unicode="&#xd7;" horiz-adv-x="510" 
d="M460 383l-148 -148l148 -148l-57 -57l-148 148l-148 -148l-57 57l148 148l-148 148l57 57l148 -148l148 148z" />
    <glyph glyph-name="Oslash" unicode="&#xd8;" horiz-adv-x="793" 
d="M400 709q148 0 250.5 -104.5t102.5 -254.5q0 -151 -102.5 -254.5t-250.5 -103.5q-151 0 -255.5 103.5t-104.5 254.5q0 152 104.5 255.5t255.5 103.5zM124 350q0 -72 33.5 -133t90.5 -99l231 498q-39 12 -80 12q-114 0 -194.5 -81t-80.5 -197zM399 73q112 0 192.5 81
t80.5 196q0 70 -33 131t-89 99l-229 -496q39 -11 78 -11z" />
    <glyph glyph-name="Ugrave" unicode="&#xd9;" horiz-adv-x="605" 
d="M453 823l-28 -76l-248 91l27 75zM460 700h80v-470q0 -100 -68.5 -169t-166.5 -69q-101 0 -170.5 68.5t-69.5 169.5v470h80v-470q0 -64 47 -109t112 -45q64 0 110 45t46 109v470z" />
    <glyph glyph-name="Uacute" unicode="&#xda;" horiz-adv-x="605" 
d="M451 863l-248 -91l-28 76l249 90zM460 700h80v-470q0 -100 -68.5 -169t-166.5 -69q-101 0 -170.5 68.5t-69.5 169.5v470h80v-470q0 -64 47 -109t112 -45q64 0 110 45t46 109v470z" />
    <glyph glyph-name="Ucircumflex" unicode="&#xdb;" horiz-adv-x="605" 
d="M305 883l-132 -132l-58 58l190 190l190 -190l-58 -58zM460 700h80v-470q0 -100 -68.5 -169t-166.5 -69q-101 0 -170.5 68.5t-69.5 169.5v470h80v-470q0 -64 47 -109t112 -45q64 0 110 45t46 109v470z" />
    <glyph glyph-name="Udieresis" unicode="&#xdc;" horiz-adv-x="605" 
d="M247 882v-82h-82v82h82zM452 882v-82h-82v82h82zM460 700h80v-470q0 -100 -68.5 -169t-166.5 -69q-101 0 -170.5 68.5t-69.5 169.5v470h80v-470q0 -64 47 -109t112 -45q64 0 110 45t46 109v470z" />
    <glyph glyph-name="Yacute" unicode="&#xdd;" horiz-adv-x="550" 
d="M399 863l-248 -91l-28 76l249 90zM15 37l453 671l67 -45l-453 -671zM191 403l-176 260l67 45l176 -260z" />
    <glyph glyph-name="Thorn" unicode="&#xde;" horiz-adv-x="545" 
d="M80 0v700h80v-700h-80zM475 376q4 -80 -55.5 -140.5t-171.5 -66.5l-4 80q71 4 109.5 40.5t36.5 83.5q-2 46 -44 78t-114 28l-4 80q112 6 177.5 -49t69.5 -134z" />
    <glyph glyph-name="germandbls" unicode="&#xdf;" horiz-adv-x="538" 
d="M395 363q50 -28 76.5 -73t26.5 -95q0 -80 -62.5 -137.5t-174.5 -57.5v80q71 0 111.5 34.5t40.5 81.5t-40 82t-112 35v81q48 0 83 35t35 82t-34.5 81t-82.5 34q-46 0 -79 -34t-33 -81v-511h-80v512q1 82 56 139t135 57q83 0 141.5 -57.5t58.5 -139.5q0 -90 -66 -148z" />
    <glyph glyph-name="agrave" unicode="&#xe0;" horiz-adv-x="649" 
d="M450 598l-28 -76l-248 91l27 75zM579 -3l-79 -5l-9 174q-20 -74 -80 -120t-138 -46q-97 0 -165 66.5t-68 162.5q0 98 67 164.5t166 66.5q71 0 128 -40t82 -104l-8 147l80 5zM272 82q61 0 103 42.5t42 104.5t-42 105.5t-103 43.5q-62 0 -106 -43.5t-44 -105.5t43.5 -104.5
t106.5 -42.5z" />
    <glyph glyph-name="aacute" unicode="&#xe1;" horiz-adv-x="649" 
d="M421 613l-248 -91l-28 76l249 90zM579 -3l-79 -5l-9 174q-20 -74 -80 -120t-138 -46q-97 0 -165 66.5t-68 162.5q0 98 67 164.5t166 66.5q71 0 128 -40t82 -104l-8 147l80 5zM272 82q61 0 103 42.5t42 104.5t-42 105.5t-103 43.5q-62 0 -106 -43.5t-44 -105.5
t43.5 -104.5t106.5 -42.5z" />
    <glyph glyph-name="acircumflex" unicode="&#xe2;" horiz-adv-x="649" 
d="M304 663l-132 -132l-58 58l190 190l190 -190l-58 -58zM579 -3l-79 -5l-9 174q-20 -74 -80 -120t-138 -46q-97 0 -165 66.5t-68 162.5q0 98 67 164.5t166 66.5q71 0 128 -40t82 -104l-8 147l80 5zM272 82q61 0 103 42.5t42 104.5t-42 105.5t-103 43.5q-62 0 -106 -43.5
t-44 -105.5t43.5 -104.5t106.5 -42.5z" />
    <glyph glyph-name="atilde" unicode="&#xe3;" horiz-adv-x="649" 
d="M242 594q-53 0 -102 -70l-69 49q70 104 165 104q60 0 122 -44q38 -26 71 -26q53 0 102 70l69 -49q-70 -104 -165 -104q-60 0 -122 44q-38 26 -71 26zM475 463l80 5l24 -471l-79 -5l-9 174q-20 -74 -80 -120t-138 -46q-97 0 -165 66.5t-68 162.5q0 98 67 164.5t166 66.5
q71 0 128 -40t82 -104zM272 82q61 0 103 42.5t42 104.5t-42 105.5t-103 43.5q-62 0 -106 -43.5t-44 -105.5t43.5 -104.5t106.5 -42.5z" />
    <glyph glyph-name="adieresis" unicode="&#xe4;" horiz-adv-x="649" 
d="M245 660v-82h-82v82h82zM450 660v-82h-82v82h82zM579 -3l-79 -5l-9 174q-20 -74 -80 -120t-138 -46q-97 0 -165 66.5t-68 162.5q0 98 67 164.5t166 66.5q71 0 128 -40t82 -104l-8 147l80 5zM272 82q61 0 103 42.5t42 104.5t-42 105.5t-103 43.5q-62 0 -106 -43.5
t-44 -105.5t43.5 -104.5t106.5 -42.5z" />
    <glyph glyph-name="aring" unicode="&#xe5;" horiz-adv-x="649" 
d="M298 503q-60 0 -102.5 43t-42.5 104q0 62 42 104.5t103 42.5q62 0 105 -43t43 -104t-43 -104t-105 -43zM299 726q-32 0 -53.5 -22t-21.5 -54t22 -54t53 -22t53.5 22t22.5 54t-22.5 54t-53.5 22zM579 -3l-79 -5l-9 174q-20 -74 -80 -120t-138 -46q-97 0 -165 66.5
t-68 162.5q0 98 67 164.5t166 66.5q71 0 128 -40t82 -104l-8 147l80 5zM272 82q61 0 103 42.5t42 104.5t-42 105.5t-103 43.5q-62 0 -106 -43.5t-44 -105.5t43.5 -104.5t106.5 -42.5z" />
    <glyph glyph-name="ae" unicode="&#xe6;" horiz-adv-x="1102" 
d="M475 463l80 5l24 -471l-79 -5l-9 174q-20 -74 -80 -120t-138 -46q-97 0 -165 66.5t-68 162.5q0 98 67 164.5t166 66.5q71 0 128 -40t82 -104zM741 190v80h232q-13 50 -54 82t-93 32q-65 0 -110 -45t-45 -109t45 -109t110 -45q17 0 32 3l7 -84q-18 -3 -38 -3
q-101 0 -170.5 69t-69.5 169q0 101 69.5 169.5t170.5 68.5q98 0 166.5 -69t68.5 -169v-40h-321zM272 82q61 0 103 42.5t42 104.5t-42 105.5t-103 43.5q-62 0 -106 -43.5t-44 -105.5t43.5 -104.5t106.5 -42.5z" />
    <glyph glyph-name="ccedilla" unicode="&#xe7;" horiz-adv-x="358" 
d="M279 -8q27 -11 44.5 -36.5t17.5 -55.5q0 -41 -29.5 -70.5t-70.5 -29.5v65q14 0 24.5 10.5t10.5 24.5t-10.5 24.5t-24.5 10.5v60q-87 14 -144 79.5t-57 155.5q0 101 69.5 169.5t170.5 68.5l6 -84h-7q-65 0 -110 -45t-45 -109t45 -109t110 -45q17 0 32 3l7 -84
q-18 -3 -38 -3h-1z" />
    <glyph glyph-name="egrave" unicode="&#xe8;" horiz-adv-x="555" 
d="M436 598l-28 -76l-248 91l27 75zM194 190v80h232q-13 50 -54 82t-93 32q-65 0 -110 -45t-45 -109t45 -109t110 -45q17 0 32 3l7 -84q-18 -3 -38 -3q-101 0 -170.5 69t-69.5 169q0 101 69.5 169.5t170.5 68.5q98 0 166.5 -69t68.5 -169v-40h-321z" />
    <glyph glyph-name="eacute" unicode="&#xe9;" horiz-adv-x="555" 
d="M416 613l-248 -91l-28 76l249 90zM194 190v80h232q-13 50 -54 82t-93 32q-65 0 -110 -45t-45 -109t45 -109t110 -45q17 0 32 3l7 -84q-18 -3 -38 -3q-101 0 -170.5 69t-69.5 169q0 101 69.5 169.5t170.5 68.5q98 0 166.5 -69t68.5 -169v-40h-321z" />
    <glyph glyph-name="ecircumflex" unicode="&#xea;" horiz-adv-x="555" 
d="M279 633l-132 -132l-58 58l190 190l190 -190l-58 -58zM194 190v80h232q-13 50 -54 82t-93 32q-65 0 -110 -45t-45 -109t45 -109t110 -45q17 0 32 3l7 -84q-18 -3 -38 -3q-101 0 -170.5 69t-69.5 169q0 101 69.5 169.5t170.5 68.5q98 0 166.5 -69t68.5 -169v-40h-321z" />
    <glyph glyph-name="edieresis" unicode="&#xeb;" horiz-adv-x="555" 
d="M219 660v-82h-82v82h82zM424 660v-82h-82v82h82zM194 190v80h232q-13 50 -54 82t-93 32q-65 0 -110 -45t-45 -109t45 -109t110 -45q17 0 32 3l7 -84q-18 -3 -38 -3q-101 0 -170.5 69t-69.5 169q0 101 69.5 169.5t170.5 68.5q98 0 166.5 -69t68.5 -169v-40h-321z" />
    <glyph glyph-name="igrave" unicode="&#xec;" horiz-adv-x="310" 
d="M209 598l-28 -76l-248 91l27 75zM135 230q0 -64 47.5 -109t112.5 -45v-84q-101 0 -170.5 68.5t-69.5 169.5v230h80v-230z" />
    <glyph glyph-name="iacute" unicode="&#xed;" horiz-adv-x="310" 
d="M183 688l27 -75l-248 -91l-28 76zM135 230q0 -64 47.5 -109t112.5 -45v-84q-101 0 -170.5 68.5t-69.5 169.5v230h80v-230z" />
    <glyph glyph-name="icircumflex" unicode="&#xee;" horiz-adv-x="310" 
d="M230 501l-132 132l-132 -132l-58 58l190 190l190 -190zM135 230q0 -64 47.5 -109t112.5 -45v-84q-101 0 -170.5 68.5t-69.5 169.5v230h80v-230z" />
    <glyph glyph-name="idieresis" unicode="&#xef;" horiz-adv-x="310" 
d="M-52 618v82h82v-82h-82zM235 700v-82h-82v82h82zM135 230q0 -64 47.5 -109t112.5 -45v-84q-101 0 -170.5 68.5t-69.5 169.5v230h80v-230z" />
    <glyph glyph-name="eth" unicode="&#xf0;" horiz-adv-x="516" 
d="M551 540l-79 -29q1 -7 1 -21v-282q0 -91 -64 -153.5t-156 -62.5q-89 0 -151 62.5t-62 153.5t62 154.5t151 63.5q79 0 140 -48v104l-90 -33l-28 76l97 35q-19 30 -51 48t-69 18v82q66 0 118.5 -32.5t79.5 -87.5l74 27zM254 74q57 0 97 39t40 95t-40.5 96t-96.5 40
q-55 0 -93.5 -40t-38.5 -96t38.5 -95t93.5 -39z" />
    <glyph glyph-name="ntilde" unicode="&#xf1;" horiz-adv-x="545" 
d="M218 568q-38 26 -71 26q-53 0 -102 -70l-69 49q70 104 165 104q60 0 122 -44q38 -26 71 -26q53 0 102 70l69 -49q-70 -104 -165 -104q-60 0 -122 44zM235 468q98 0 166.5 -69t68.5 -169v-230h-80v230q0 64 -46 109t-109 45h-75v-384h-80v468h155z" />
    <glyph glyph-name="ograve" unicode="&#xf2;" horiz-adv-x="555" 
d="M165 613l27 75l249 -90l-28 -76zM280 -8q98 0 166.5 69t68.5 169t-68.5 169t-166.5 69q-101 0 -170.5 -68.5t-69.5 -169.5q0 -100 69.5 -169t170.5 -69zM279 74q-65 0 -111 45.5t-46 110.5t46 110.5t111 45.5q64 0 109 -45.5t45 -110.5t-45 -110.5t-109 -45.5z" />
    <glyph glyph-name="oacute" unicode="&#xf3;" horiz-adv-x="555" 
d="M411 613l-248 -91l-28 76l249 90zM280 -8q98 0 166.5 69t68.5 169t-68.5 169t-166.5 69q-101 0 -170.5 -68.5t-69.5 -169.5q0 -100 69.5 -169t170.5 -69zM279 74q-65 0 -111 45.5t-46 110.5t46 110.5t111 45.5q64 0 109 -45.5t45 -110.5t-45 -110.5t-109 -45.5z" />
    <glyph glyph-name="ocircumflex" unicode="&#xf4;" horiz-adv-x="555" 
d="M273 663l-132 -132l-58 58l190 190l190 -190l-58 -58zM280 468q98 0 166.5 -69t68.5 -169t-68.5 -169t-166.5 -69q-101 0 -170.5 69t-69.5 169q0 101 69.5 169.5t170.5 68.5zM279 74q64 0 109 45.5t45 110.5t-45 110.5t-109 45.5q-65 0 -111 -45.5t-46 -110.5t46 -110.5
t111 -45.5z" />
    <glyph glyph-name="otilde" unicode="&#xf5;" horiz-adv-x="555" 
d="M483 677l69 -49q-70 -104 -165 -104q-60 0 -122 44q-38 26 -71 26q-53 0 -102 -70l-69 49q70 104 165 104q60 0 122 -44q38 -26 71 -26q53 0 102 70zM280 -8q98 0 166.5 69t68.5 169t-68.5 169t-166.5 69q-101 0 -170.5 -68.5t-69.5 -169.5q0 -100 69.5 -169t170.5 -69z
M279 74q-65 0 -111 45.5t-46 110.5t46 110.5t111 45.5q64 0 109 -45.5t45 -110.5t-45 -110.5t-109 -45.5z" />
    <glyph glyph-name="odieresis" unicode="&#xf6;" horiz-adv-x="555" 
d="M137 660h82v-82h-82v82zM342 660h82v-82h-82v82zM280 -8q98 0 166.5 69t68.5 169t-68.5 169t-166.5 69q-101 0 -170.5 -68.5t-69.5 -169.5q0 -100 69.5 -169t170.5 -69zM279 74q-65 0 -111 45.5t-46 110.5t46 110.5t111 45.5q64 0 109 -45.5t45 -110.5t-45 -110.5
t-109 -45.5z" />
    <glyph glyph-name="divide" unicode="&#xf7;" horiz-adv-x="700" 
d="M391 460v-82h-82v82h82zM600 190h-500v80h500v-80zM391 82v-82h-82v82h82z" />
    <glyph glyph-name="oslash" unicode="&#xf8;" horiz-adv-x="555" 
d="M280 468q98 0 166.5 -69t68.5 -169t-68.5 -169t-166.5 -69q-101 0 -170.5 69t-69.5 169q0 101 69.5 169.5t170.5 68.5zM279 386q-65 0 -111 -45.5t-46 -110.5q0 -75 57 -121l127 275q-18 2 -27 2zM279 74q64 0 109 45.5t45 110.5q0 73 -54 119l-127 -273q18 -2 27 -2z
" />
    <glyph glyph-name="ugrave" unicode="&#xf9;" 
d="M421 598l-28 -76l-248 91l27 75zM405 460h80v-230q0 -104 -54.5 -171t-151.5 -67q-96 0 -150 66.5t-54 171.5v230h80v-230q0 -68 31.5 -111t93.5 -43q61 0 93 43t32 111v230z" />
    <glyph glyph-name="uacute" unicode="&#xfa;" 
d="M442 613l-248 -91l-28 76l249 90zM405 460h80v-230q0 -104 -54.5 -171t-151.5 -67q-96 0 -150 66.5t-54 171.5v230h80v-230q0 -68 31.5 -111t93.5 -43q61 0 93 43t32 111v230z" />
    <glyph glyph-name="ucircumflex" unicode="&#xfb;" 
d="M282 663l-132 -132l-58 58l190 190l190 -190l-58 -58zM405 460h80v-230q0 -104 -54.5 -171t-151.5 -67q-96 0 -150 66.5t-54 171.5v230h80v-230q0 -68 31.5 -111t93.5 -43q61 0 93 43t32 111v230z" />
    <glyph glyph-name="udieresis" unicode="&#xfc;" 
d="M216 700v-82h-82v82h82zM421 700v-82h-82v82h82zM405 460h80v-230q0 -104 -54.5 -171t-151.5 -67q-96 0 -150 66.5t-54 171.5v230h80v-230q0 -68 31.5 -111t93.5 -43q61 0 93 43t32 111v230z" />
    <glyph glyph-name="yacute" unicode="&#xfd;" horiz-adv-x="442" 
d="M362 613l-248 -91l-28 76l249 90zM157 -240l-74 29l275 680l74 -30zM208 160l-74 -29l-124 308l74 29z" />
    <glyph glyph-name="thorn" unicode="&#xfe;" horiz-adv-x="644" 
d="M378 460q94 0 160 -67.5t66 -163.5q0 -97 -65.5 -163t-160.5 -66q-75 0 -135 42t-84 109l20 -394l-79 -5l-55 1043l80 5l27 -514q18 77 80.5 125.5t145.5 48.5zM377 82q61 0 103 42.5t42 104.5t-42 105.5t-103 43.5q-62 0 -106 -43.5t-44 -105.5t43.5 -104.5t106.5 -42.5
z" />
    <glyph glyph-name="ydieresis" unicode="&#xff;" horiz-adv-x="442" 
d="M89 700h82v-82h-82v82zM294 700h82v-82h-82v82zM157 -240l-74 29l275 680l74 -30zM208 160l-74 -29l-124 308l74 29z" />
    <glyph glyph-name="Amacron" unicode="&#x100;" horiz-adv-x="648" 
d="M509 865v-80h-352v80h352zM559 -8l-86 213l-304 -17l-80 -196l-74 30l65 162l-48 -3l-4 80l86 5l179 442l74 -30l-165 -408l239 13l-103 256l74 30l221 -547z" />
    <glyph glyph-name="amacron" unicode="&#x101;" horiz-adv-x="649" 
d="M491 640v-80h-352v80h352zM579 -3l-79 -5l-9 174q-20 -74 -80 -120t-138 -46q-97 0 -165 66.5t-68 162.5q0 98 67 164.5t166 66.5q71 0 128 -40t82 -104l-8 147l80 5zM272 82q61 0 103 42.5t42 104.5t-42 105.5t-103 43.5q-62 0 -106 -43.5t-44 -105.5t43.5 -104.5
t106.5 -42.5z" />
    <glyph glyph-name="Abreve" unicode="&#x102;" horiz-adv-x="648" 
d="M356 735q-76 0 -135.5 40t-86.5 106l73 35q18 -43 58.5 -70t89.5 -27q48 0 87.5 26.5t57.5 69.5l73 -34q-27 -66 -85.5 -106t-131.5 -40zM559 -8l-86 213l-304 -17l-80 -196l-74 30l65 162l-48 -3l-4 80l86 5l179 442l74 -30l-165 -408l239 13l-103 256l74 30l221 -547z
" />
    <glyph glyph-name="abreve" unicode="&#x103;" horiz-adv-x="649" 
d="M307 510q-76 0 -135.5 40t-86.5 106l73 35q18 -43 58.5 -70t89.5 -27q48 0 87.5 26.5t57.5 69.5l73 -34q-27 -66 -85.5 -106t-131.5 -40zM579 -3l-79 -5l-9 174q-20 -74 -80 -120t-138 -46q-97 0 -165 66.5t-68 162.5q0 98 67 164.5t166 66.5q71 0 128 -40t82 -104
l-8 147l80 5zM272 82q61 0 103 42.5t42 104.5t-42 105.5t-103 43.5q-62 0 -106 -43.5t-44 -105.5t43.5 -104.5t106.5 -42.5z" />
    <glyph glyph-name="Aogonek" unicode="&#x104;" horiz-adv-x="648" 
d="M559 -8q-40 0 -64.5 -18.5t-24.5 -53.5q0 -26 14 -42.5t41 -16.5q7 0 21 2l9 -59q-24 -4 -46 -4q-51 0 -80 32.5t-29 77.5q0 51 36 91.5t101 44.5l-64 159l-304 -17l-80 -196l-74 30l65 162l-48 -3l-4 80l86 5l179 442l74 -30l-165 -408l239 13l-103 256l74 30l221 -547z
" />
    <glyph glyph-name="aogonek" unicode="&#x105;" horiz-adv-x="664" 
d="M560 -139q7 0 21 2l9 -59q-24 -4 -46 -4q-51 0 -80 33t-29 79q0 34 16.5 65t46.5 51l-7 138q-20 -74 -80 -120t-138 -46q-97 0 -165 66.5t-68 162.5q0 98 67 164.5t166 66.5q71 0 128 -40t82 -104l-8 147l80 5l21 -417h7l11 -54q-40 0 -64.5 -19t-24.5 -56q0 -27 14 -44
t41 -17zM272 82q61 0 103 42.5t42 104.5t-42 105.5t-103 43.5q-62 0 -106 -43.5t-44 -105.5t43.5 -104.5t106.5 -42.5z" />
    <glyph glyph-name="Cacute" unicode="&#x106;" horiz-adv-x="570" 
d="M421 838l-248 -91l-28 76l249 90zM510 3q-44 -11 -88 -11q-148 0 -252.5 105t-104.5 254t104.5 253t252.5 104l11 -84q-46 0 -93 -15.5t-91 -46t-72 -86t-28 -125.5q0 -114 80 -194.5t193 -80.5q41 0 77 11z" />
    <glyph glyph-name="cacute" unicode="&#x107;" horiz-adv-x="358" 
d="M297 613l-248 -91l-28 76l249 90zM311 79l7 -84q-18 -3 -38 -3q-101 0 -170.5 69t-69.5 169q0 101 69.5 169.5t170.5 68.5l6 -84h-7q-65 0 -110 -45t-45 -109t45 -109t110 -45q17 0 32 3z" />
    <glyph glyph-name="Cdotaccent" unicode="&#x10a;" horiz-adv-x="570" 
d="M316 925h82v-82h-82v82zM510 3q-44 -11 -88 -11q-148 0 -252.5 105t-104.5 254t104.5 253t252.5 104l11 -84q-46 0 -93 -15.5t-91 -46t-72 -86t-28 -125.5q0 -114 80 -194.5t193 -80.5q41 0 77 11z" />
    <glyph glyph-name="cdotaccent" unicode="&#x10b;" horiz-adv-x="358" 
d="M194 700h82v-82h-82v82zM311 79l7 -84q-18 -3 -38 -3q-101 0 -170.5 69t-69.5 169q0 101 69.5 169.5t170.5 68.5l6 -84h-7q-65 0 -110 -45t-45 -109t45 -109t110 -45q17 0 32 3z" />
    <glyph glyph-name="Ccaron" unicode="&#x10c;" horiz-adv-x="570" 
d="M347 727l-190 190l58 58l132 -132l132 132l58 -58zM422 76q41 0 77 11l11 -84q-44 -11 -88 -11q-148 0 -252.5 105t-104.5 254t104.5 253t252.5 104l11 -84q-46 0 -93 -15.5t-91 -46t-72 -86t-28 -125.5q0 -114 80 -194.5t193 -80.5z" />
    <glyph glyph-name="ccaron" unicode="&#x10d;" horiz-adv-x="358" 
d="M239 502l-190 190l58 58l132 -132l132 132l58 -58zM279 76q17 0 32 3l7 -84q-18 -3 -38 -3q-101 0 -170.5 69t-69.5 169q0 101 69.5 169.5t170.5 68.5l6 -84h-7q-65 0 -110 -45t-45 -109t45 -109t110 -45z" />
    <glyph glyph-name="Dcaron" unicode="&#x10e;" horiz-adv-x="709" 
d="M278 727l-190 190l58 58l132 -132l132 132l58 -58zM287 708q148 0 252.5 -105t104.5 -254t-104 -253t-253 -104l-11 84q46 0 93 15.5t91 46t72 86t28 125.5q0 114 -80 194.5t-193 80.5q-41 0 -77 -11l-11 84q44 11 88 11zM70 0v700h80v-700h-80z" />
    <glyph glyph-name="dcaron" unicode="&#x10f;" horiz-adv-x="629" 
d="M457 795l80 5l42 -799l-80 -5l-9 168q-20 -73 -80 -118.5t-137 -45.5q-97 0 -165 66.5t-68 162.5q0 98 67 164.5t166 66.5q70 0 126.5 -39.5t82.5 -103.5zM633 749l82 -4l-8 -165l-82 4zM272 82q61 0 103 42.5t42 104.5t-42 105.5t-103 43.5q-62 0 -106 -43.5t-44 -105.5
t43.5 -104.5t106.5 -42.5z" />
    <glyph glyph-name="Dcroat" unicode="&#x110;" horiz-adv-x="709" 
d="M287 708q148 0 252.5 -105t104.5 -254t-104 -253t-253 -104l-11 84q46 0 93 15.5t91 46t72 86t28 125.5q0 114 -80 194.5t-193 80.5q-41 0 -77 -11l-11 84q44 11 88 11zM292 290h-142v-290h-80v290h-130v80h130v330h80v-330h142v-80z" />
    <glyph glyph-name="dcroat" unicode="&#x111;" horiz-adv-x="644" 
d="M688 640v-80h-123l29 -559l-80 -5l-9 168q-20 -73 -80 -118.5t-137 -45.5q-97 0 -165 66.5t-68 162.5q0 98 67 164.5t166 66.5q70 0 126.5 -39.5t82.5 -103.5l-13 243h-148v80h144l-8 155l80 5l8 -160h128zM287 82q61 0 103 42.5t42 104.5t-42 105.5t-103 43.5
q-62 0 -106 -43.5t-44 -105.5t43.5 -104.5t106.5 -42.5z" />
    <glyph glyph-name="Emacron" unicode="&#x112;" 
d="M474 810h-352v80h352v-80zM150 0h-80v700h80v-700zM510 620h-310v80h310v-80zM472 327l-270 -14l-4 80l270 14zM510 0h-310v80h310v-80z" />
    <glyph glyph-name="emacron" unicode="&#x113;" horiz-adv-x="555" 
d="M459 640v-80h-352v80h352zM194 190v80h232q-13 50 -54 82t-93 32q-65 0 -110 -45t-45 -109t45 -109t110 -45q17 0 32 3l7 -84q-18 -3 -38 -3q-101 0 -170.5 69t-69.5 169q0 101 69.5 169.5t170.5 68.5q98 0 166.5 -69t68.5 -169v-40h-321z" />
    <glyph glyph-name="Edotaccent" unicode="&#x116;" 
d="M265 950h82v-82h-82v82zM150 0h-80v700h80v-700zM510 620h-310v80h310v-80zM472 327l-270 -14l-4 80l270 14zM510 0h-310v80h310v-80z" />
    <glyph glyph-name="edotaccent" unicode="&#x117;" horiz-adv-x="555" 
d="M322 700v-82h-82v82h82zM194 190v80h232q-13 50 -54 82t-93 32q-65 0 -110 -45t-45 -109t45 -109t110 -45q17 0 32 3l7 -84q-18 -3 -38 -3q-101 0 -170.5 69t-69.5 169q0 101 69.5 169.5t170.5 68.5q98 0 166.5 -69t68.5 -169v-40h-321z" />
    <glyph glyph-name="Eogonek" unicode="&#x118;" 
d="M70 0v700h80v-700h-80zM200 700h310v-80h-310v80zM472 327l-270 -14l-4 80l270 14zM200 0v80h310v-80q-40 0 -64.5 -19.5t-24.5 -57.5q0 -62 55 -62q7 0 21 2l9 -59q-24 -4 -46 -4q-51 0 -80 33t-29 80q0 49 29 87h-180z" />
    <glyph glyph-name="eogonek" unicode="&#x119;" horiz-adv-x="555" 
d="M194 190v80h232q-13 50 -54 82t-93 32q-65 0 -110 -45t-45 -109t45 -109t110 -45q17 0 32 3l7 -84q-1 0 -29 -3q-60 -12 -60 -70q0 -27 14 -44t41 -17q7 0 21 2l9 -59q-24 -4 -46 -4q-51 0 -80 33t-29 79q0 54 38 94q-70 25 -113.5 85.5t-43.5 138.5q0 101 69.5 169.5
t170.5 68.5q98 0 166.5 -69t68.5 -169v-40h-321z" />
    <glyph glyph-name="Ecaron" unicode="&#x11a;" 
d="M311 727l-190 190l58 58l132 -132l132 132l58 -58zM70 0v700h80v-700h-80zM200 700h310v-80h-310v80zM472 327l-270 -14l-4 80l270 14zM200 0v80h310v-80h-310z" />
    <glyph glyph-name="ecaron" unicode="&#x11b;" horiz-adv-x="555" 
d="M286 502l-190 190l58 58l132 -132l132 132l58 -58zM194 190v80h232q-13 50 -54 82t-93 32q-65 0 -110 -45t-45 -109t45 -109t110 -45q17 0 32 3l7 -84q-18 -3 -38 -3q-101 0 -170.5 69t-69.5 169q0 101 69.5 169.5t170.5 68.5q98 0 166.5 -69t68.5 -169v-40h-321z" />
    <glyph glyph-name="Gbreve" unicode="&#x11e;" horiz-adv-x="730" 
d="M647 906q-27 -66 -85.5 -106t-131.5 -40q-76 0 -135.5 40t-86.5 106l73 35q18 -43 58.5 -70t89.5 -27q48 0 87.5 26.5t57.5 69.5zM510 3q-44 -11 -88 -11q-148 0 -252.5 105t-104.5 254t104.5 253t252.5 104l11 -84q-46 0 -93 -15.5t-91 -46t-72 -86t-28 -125.5
q0 -114 80 -194.5t193 -80.5q41 0 77 11zM680 0h-80v285h-237v80h317v-365z" />
    <glyph glyph-name="gbreve" unicode="&#x11f;" horiz-adv-x="624" 
d="M272 510q-76 0 -135.5 40t-86.5 106l73 35q18 -43 58.5 -70t89.5 -27q48 0 87.5 26.5t57.5 69.5l73 -34q-27 -66 -85.5 -106t-131.5 -40zM489 460h80v-470q0 -101 -69.5 -169.5t-170.5 -68.5v84q65 0 112.5 45t47.5 109v170q-21 -71 -80.5 -115.5t-135.5 -44.5
q-97 0 -165 66.5t-68 162.5q0 98 67 164.5t166 66.5q76 0 135.5 -45.5t80.5 -116.5v162zM272 82q61 0 103 42.5t42 104.5t-42 105.5t-103 43.5q-62 0 -106 -43.5t-44 -105.5t43.5 -104.5t106.5 -42.5z" />
    <glyph glyph-name="Gdotaccent" unicode="&#x120;" horiz-adv-x="730" 
d="M390 950h82v-82h-82v82zM510 3q-44 -11 -88 -11q-148 0 -252.5 105t-104.5 254t104.5 253t252.5 104l11 -84q-46 0 -93 -15.5t-91 -46t-72 -86t-28 -125.5q0 -114 80 -194.5t193 -80.5q41 0 77 11zM680 0h-80v285h-237v80h317v-365z" />
    <glyph glyph-name="gdotaccent" unicode="&#x121;" horiz-adv-x="624" 
d="M302 700v-82h-82v82h82zM489 460h80v-470q0 -101 -69.5 -169.5t-170.5 -68.5v84q65 0 112.5 45t47.5 109v170q-21 -71 -80.5 -115.5t-135.5 -44.5q-97 0 -165 66.5t-68 162.5q0 98 67 164.5t166 66.5q76 0 135.5 -45.5t80.5 -116.5v162zM272 82q61 0 103 42.5t42 104.5
t-42 105.5t-103 43.5q-62 0 -106 -43.5t-44 -105.5t43.5 -104.5t106.5 -42.5z" />
    <glyph glyph-name="Gcommaaccent" unicode="&#x122;" horiz-adv-x="730" 
d="M510 3q-44 -11 -88 -11q-148 0 -252.5 105t-104.5 254t104.5 253t252.5 104l11 -84q-46 0 -93 -15.5t-91 -46t-72 -86t-28 -125.5q0 -114 80 -194.5t193 -80.5q41 0 77 11zM680 0h-80v285h-237v80h317v-365zM508 -70l-8 -165l-82 4l8 165z" />
    <glyph glyph-name="gcommaaccent" unicode="&#x123;" horiz-adv-x="600" 
d="M353 745l-8 -165l-82 4l8 165zM489 460h80v-470q0 -101 -69.5 -169.5t-170.5 -68.5v84q65 0 112.5 45t47.5 109v170q-21 -71 -80.5 -115.5t-135.5 -44.5q-97 0 -165 66.5t-68 162.5q0 98 67 164.5t166 66.5q76 0 135.5 -45.5t80.5 -116.5v162zM272 82q61 0 103 42.5
t42 104.5t-42 105.5t-103 43.5q-62 0 -106 -43.5t-44 -105.5t43.5 -104.5t106.5 -42.5z" />
    <glyph glyph-name="Hbar" unicode="&#x126;" horiz-adv-x="660" 
d="M652 302l-52 -3v-299h-80v295l-318 -17l-4 80l322 17v105h-370v-480h-80v700h80v-140h370v140h80v-321l48 3z" />
    <glyph glyph-name="hbar" unicode="&#x127;" horiz-adv-x="545" 
d="M235 468q98 0 166.5 -69t68.5 -169v-230h-80v230q0 64 -46 109t-109 45h-75v-384h-80v560h-100v80h100v160h80v-160h172v-80h-172v-92h75z" />
    <glyph glyph-name="Imacron" unicode="&#x12a;" horiz-adv-x="220" 
d="M287 785h-352v80h352v-80zM150 0h-80v700h80v-700z" />
    <glyph glyph-name="imacron" unicode="&#x12b;" horiz-adv-x="310" 
d="M278 640v-80h-352v80h352zM135 230q0 -64 47.5 -109t112.5 -45v-84q-101 0 -170.5 68.5t-69.5 169.5v230h80v-230z" />
    <glyph glyph-name="Iogonek" unicode="&#x12e;" horiz-adv-x="220" 
d="M150 0q-40 0 -64.5 -19.5t-24.5 -57.5q0 -62 55 -62q7 0 21 2l9 -59q-24 -4 -46 -4q-51 0 -80 33t-29 80q0 39 20.5 74t58.5 53v660h80v-700z" />
    <glyph glyph-name="iogonek" unicode="&#x12f;" horiz-adv-x="311" 
d="M137 700v-82h-82v82h82zM296 -8q-40 0 -64.5 -18.5t-24.5 -53.5q0 -26 14 -42.5t41 -16.5q7 0 21 2l9 -59q-24 -4 -46 -4q-51 0 -80 32.5t-29 77.5q0 66 52 106q-61 29 -97 86t-36 128v230h80v-230q0 -64 47.5 -109t112.5 -45v-84z" />
    <glyph glyph-name="Idotaccent" unicode="&#x130;" horiz-adv-x="220" 
d="M70 925h82v-82h-82v82zM150 0h-80v700h80v-700z" />
    <glyph glyph-name="dotlessi" unicode="&#x131;" horiz-adv-x="310" 
d="M135 230q0 -64 47.5 -109t112.5 -45v-84q-101 0 -170.5 68.5t-69.5 169.5v230h80v-230z" />
    <glyph glyph-name="Kcommaaccent" unicode="&#x136;" horiz-adv-x="597" 
d="M543 654l-269 -289l-59 54l269 289zM150 0h-80v700h80v-700zM582 50l-55 -58l-312 291l55 58zM330 -25l-8 -165l-82 4l8 165z" />
    <glyph glyph-name="kcommaaccent" unicode="&#x137;" horiz-adv-x="481" 
d="M150 0h-80v800h80v-800zM427 414l-156 -168l-59 54l156 168zM466 50l-55 -58l-195 181l55 58zM302 -25l-8 -165l-82 4l8 165z" />
    <glyph glyph-name="Lacute" unicode="&#x139;" horiz-adv-x="530" 
d="M206 838l-248 -91l-28 76l249 90zM150 0h-80v700h80v-700zM510 0h-310v80h310v-80z" />
    <glyph glyph-name="lacute" unicode="&#x13a;" horiz-adv-x="310" 
d="M149 1018l27 -75l-248 -91l-28 76zM135 230q0 -64 47.5 -109t112.5 -45v-84q-101 0 -170.5 68.5t-69.5 169.5v570h80v-570z" />
    <glyph glyph-name="Lcommaaccent" unicode="&#x13b;" horiz-adv-x="530" 
d="M150 0h-80v700h80v-700zM510 0h-310v80h310v-80zM340 -70l-8 -165l-82 4l8 165z" />
    <glyph glyph-name="lcommaaccent" unicode="&#x13c;" horiz-adv-x="310" 
d="M135 230q0 -64 47.5 -109t112.5 -45v-84q-101 0 -170.5 68.5t-69.5 169.5v570h80v-570zM146 -200l8 165l82 -4l-8 -165z" />
    <glyph glyph-name="Lcaron" unicode="&#x13d;" horiz-adv-x="530" 
d="M413 745l-8 -165l-82 4l8 165zM150 0h-80v700h80v-700zM510 0h-310v80h310v-80z" />
    <glyph glyph-name="lcaron" unicode="&#x13e;" horiz-adv-x="310" 
d="M135 230q0 -64 47.5 -109t112.5 -45v-84q-101 0 -170.5 68.5t-69.5 169.5v570h80v-570zM248 749l82 -4l-8 -165l-82 4z" />
    <glyph glyph-name="Ldot" unicode="&#x13f;" horiz-adv-x="530" 
d="M151 845v-82h-82v82h82zM150 0h-80v700h80v-700zM510 0h-310v80h310v-80z" />
    <glyph glyph-name="ldot" unicode="&#x140;" horiz-adv-x="310" 
d="M137 970v-82h-82v82h82zM135 230q0 -64 47.5 -109t112.5 -45v-84q-101 0 -170.5 68.5t-69.5 169.5v570h80v-570z" />
    <glyph glyph-name="Lslash" unicode="&#x141;" horiz-adv-x="600" 
d="M293 414l-143 -83v-331h-80v285l-81 -47l-40 70l121 70v322h80v-276l103 60zM200 80h310v-80h-310v80z" />
    <glyph glyph-name="lslash" unicode="&#x142;" horiz-adv-x="310" 
d="M135 230q0 -64 47.5 -109t112.5 -45v-84q-101 0 -170.5 68.5t-69.5 169.5v61l-92 -53l-40 70l132 76v416h80v-369l92 53l40 -70l-132 -76v-108z" />
    <glyph glyph-name="Nacute" unicode="&#x143;" horiz-adv-x="670" 
d="M501 838l-248 -91l-28 76l249 90zM150 0h-80v700h80v-700zM600 0h-80v700h80v-700zM496 236l-65 -47l-256 340l64 48z" />
    <glyph glyph-name="nacute" unicode="&#x144;" horiz-adv-x="545" 
d="M299 688l27 -75l-248 -91l-28 76zM235 468q98 0 166.5 -69t68.5 -169v-230h-80v230q0 64 -46 109t-109 45h-75v-384h-80v468h155z" />
    <glyph glyph-name="Ncommaaccent" unicode="&#x145;" horiz-adv-x="670" 
d="M150 0h-80v700h80v-700zM600 0h-80v700h80v-700zM496 236l-65 -47l-256 340l64 48zM384 -25l-8 -165l-82 4l8 165z" />
    <glyph glyph-name="ncommaaccent" unicode="&#x146;" horiz-adv-x="545" 
d="M235 468q98 0 166.5 -69t68.5 -169v-230h-80v230q0 64 -46 109t-109 45h-75v-384h-80v468h155zM226 -186l8 165l82 -4l-8 -165z" />
    <glyph glyph-name="Ncaron" unicode="&#x147;" horiz-adv-x="670" 
d="M337 702l-190 190l58 58l132 -132l132 132l58 -58zM70 0v700h80v-700h-80zM520 700h80v-700h-80v700zM175 529l64 48l257 -341l-65 -47z" />
    <glyph glyph-name="ncaron" unicode="&#x148;" horiz-adv-x="545" 
d="M240 502l-190 190l58 58l132 -132l132 132l58 -58zM235 468q98 0 166.5 -69t68.5 -169v-230h-80v230q0 64 -46 109t-109 45h-75v-384h-80v468h155z" />
    <glyph glyph-name="Eng" unicode="&#x14a;" horiz-adv-x="670" 
d="M70 0v700h80v-700h-80zM520 700h80v-662q0 -100 -68.5 -169t-166.5 -69v84q63 0 109 45t46 109v662zM496 236l-65 -47l-256 340l64 48z" />
    <glyph glyph-name="eng" unicode="&#x14b;" horiz-adv-x="525" 
d="M235 468q98 0 166.5 -69t68.5 -169v-240q0 -101 -69.5 -169.5t-170.5 -68.5v84q65 0 112.5 45t47.5 109v240q0 64 -46 109t-109 45h-75v-384h-80v468h155z" />
    <glyph glyph-name="Omacron" unicode="&#x14c;" horiz-adv-x="793" 
d="M572 785h-352v80h352v-80zM400 -8q148 0 250.5 103.5t102.5 254.5q0 150 -102.5 254.5t-250.5 104.5q-151 0 -255.5 -103.5t-104.5 -255.5q0 -151 104.5 -254.5t255.5 -103.5zM399 73q-114 0 -194.5 81t-80.5 196q0 116 80.5 197t194.5 81q112 0 192.5 -82.5t80.5 -195.5
q0 -115 -80.5 -196t-192.5 -81z" />
    <glyph glyph-name="omacron" unicode="&#x14d;" horiz-adv-x="555" 
d="M457 560h-352v80h352v-80zM280 -8q98 0 166.5 69t68.5 169t-68.5 169t-166.5 69q-101 0 -170.5 -68.5t-69.5 -169.5q0 -100 69.5 -169t170.5 -69zM279 74q-65 0 -111 45.5t-46 110.5t46 110.5t111 45.5q64 0 109 -45.5t45 -110.5t-45 -110.5t-109 -45.5z" />
    <glyph glyph-name="Ohungarumlaut" unicode="&#x150;" horiz-adv-x="793" 
d="M270 790l91 195l67 -45l-91 -195zM423 790l91 195l67 -45l-91 -195zM400 -8q148 0 250.5 103.5t102.5 254.5q0 150 -102.5 254.5t-250.5 104.5q-151 0 -255.5 -103.5t-104.5 -255.5q0 -151 104.5 -254.5t255.5 -103.5zM399 73q-114 0 -194.5 81t-80.5 196q0 116 80.5 197
t194.5 81q112 0 192.5 -82.5t80.5 -195.5q0 -115 -80.5 -196t-192.5 -81z" />
    <glyph glyph-name="ohungarumlaut" unicode="&#x151;" horiz-adv-x="555" 
d="M150 540l91 195l67 -45l-91 -195zM303 540l91 195l67 -45l-91 -195zM280 -8q98 0 166.5 69t68.5 169t-68.5 169t-166.5 69q-101 0 -170.5 -68.5t-69.5 -169.5q0 -100 69.5 -169t170.5 -69zM279 74q-65 0 -111 45.5t-46 110.5t46 110.5t111 45.5q64 0 109 -45.5t45 -110.5
t-45 -110.5t-109 -45.5z" />
    <glyph glyph-name="OE" unicode="&#x152;" horiz-adv-x="1162" 
d="M400 -8q148 0 250.5 103.5t102.5 254.5q0 150 -102.5 254.5t-250.5 104.5q-151 0 -255.5 -103.5t-104.5 -255.5q0 -151 104.5 -254.5t255.5 -103.5zM1112 620h-310v80h310v-80zM399 73q-114 0 -194.5 81t-80.5 196q0 116 80.5 197t194.5 81q112 0 192.5 -82.5
t80.5 -195.5q0 -115 -80.5 -196t-192.5 -81zM1074 327l-270 -14l-4 80l270 14zM1112 0h-310v80h310v-80z" />
    <glyph glyph-name="oe" unicode="&#x153;" horiz-adv-x="948" 
d="M587 190v80h232q-13 50 -54 82t-93 32q-65 0 -110 -45t-45 -109t45 -109t110 -45q17 0 32 3l7 -84q-18 -3 -38 -3q-61 0 -113.5 27.5t-85.5 75.5q-32 -48 -83 -75.5t-111 -27.5q-101 0 -170.5 69t-69.5 169q0 101 69.5 169.5t170.5 68.5q60 0 111 -27.5t83 -74.5
q33 47 85 74.5t114 27.5q98 0 166.5 -69t68.5 -169v-40h-321zM279 74q64 0 109 45.5t45 110.5t-45 110.5t-109 45.5q-65 0 -111 -45.5t-46 -110.5t46 -110.5t111 -45.5z" />
    <glyph glyph-name="Racute" unicode="&#x154;" horiz-adv-x="532" 
d="M384 863l-248 -91l-28 76l249 90zM70 0v700h80v-700h-80zM466 511q4 -80 -55.5 -140.5t-171.5 -66.5l-4 80q71 4 109.5 40.5t36.5 83.5q-2 46 -44 78t-114 28l-4 80q112 6 177.5 -49t69.5 -134zM349 282l138 -251l-70 -39l-138 252z" />
    <glyph glyph-name="racute" unicode="&#x155;" horiz-adv-x="310" 
d="M265 688l27 -75l-248 -91l-28 76zM55 230q0 101 69.5 169.5t170.5 68.5v-84q-65 0 -112.5 -45t-47.5 -109v-230h-80v230z" />
    <glyph glyph-name="Rcommaaccent" unicode="&#x156;" horiz-adv-x="532" 
d="M70 0v700h80v-700h-80zM381 508q-2 46 -44 78t-114 28l-4 80q112 6 177.5 -49t69.5 -134q4 -80 -55.5 -140.5t-171.5 -66.5l-4 80q71 4 109.5 40.5t36.5 83.5zM349 282l138 -251l-70 -39l-138 252zM221 -186l8 165l82 -4l-8 -165z" />
    <glyph glyph-name="rcommaaccent" unicode="&#x157;" horiz-adv-x="310" 
d="M55 230q0 101 69.5 169.5t170.5 68.5v-84q-65 0 -112.5 -45t-47.5 -109v-230h-80v230zM46 -200l8 165l82 -4l-8 -165z" />
    <glyph glyph-name="Rcaron" unicode="&#x158;" horiz-adv-x="532" 
d="M240 727l-190 190l58 58l132 -132l132 132l58 -58zM70 0v700h80v-700h-80zM466 511q4 -80 -55.5 -140.5t-171.5 -66.5l-4 80q71 4 109.5 40.5t36.5 83.5q-2 46 -44 78t-114 28l-4 80q112 6 177.5 -49t69.5 -134zM349 282l138 -251l-70 -39l-138 252z" />
    <glyph glyph-name="rcaron" unicode="&#x159;" horiz-adv-x="310" 
d="M215 502l-190 190l58 58l132 -132l132 132l58 -58zM55 230q0 101 69.5 169.5t170.5 68.5v-84q-65 0 -112.5 -45t-47.5 -109v-230h-80v230z" />
    <glyph glyph-name="Sacute" unicode="&#x15a;" horiz-adv-x="452" 
d="M371 863l-248 -91l-28 76l249 90zM177 331q-67 39 -99.5 91t-32.5 106q0 72 52 127t135 55q68 0 140 -42l-40 -68q-50 28 -93 28q-51 0 -80.5 -29.5t-29.5 -72.5q0 -74 88 -125zM275 371q67 -39 99.5 -91t32.5 -106q0 -72 -52 -127t-135 -55q-68 0 -140 42l40 68
q50 -28 93 -28q51 0 80.5 29.5t29.5 72.5q0 74 -88 125z" />
    <glyph glyph-name="sacute" unicode="&#x15b;" horiz-adv-x="469" 
d="M326 613l-248 -91l-28 76l249 90zM424 230q0 -100 -68.5 -169t-167.5 -69q-30 0 -62 8l22 81q22 -5 40 -5q46 0 85 25.5t58 66.5l-286 62q0 100 68.5 169t167.5 69q30 0 62 -8l-22 -81q-22 5 -40 5q-46 0 -85 -25.5t-58 -66.5z" />
    <glyph glyph-name="Scedilla" unicode="&#x15e;" horiz-adv-x="452" 
d="M177 331q-67 39 -99.5 91t-32.5 106q0 72 52 127t135 55q68 0 140 -42l-40 -68q-50 28 -93 28q-51 0 -80.5 -29.5t-29.5 -72.5q0 -74 88 -125zM407 174q0 -61 -38.5 -111.5t-102.5 -65.5q33 -8 54.5 -35.5t21.5 -61.5q0 -41 -29.5 -70.5t-70.5 -29.5v65q14 0 24.5 10.5
t10.5 24.5t-10.5 24.5t-24.5 10.5v58q-7 -1 -22 -1q-68 0 -140 42l40 68q50 -28 93 -28q51 0 80.5 29.5t29.5 72.5q0 74 -88 125l40 70q67 -39 99.5 -91t32.5 -106z" />
    <glyph glyph-name="scedilla" unicode="&#x15f;" horiz-adv-x="469" 
d="M424 230q0 -90 -56.5 -156t-142.5 -79q30 -11 49.5 -37t19.5 -58q0 -41 -29.5 -70.5t-70.5 -29.5v65q14 0 24.5 10.5t10.5 24.5t-10.5 24.5t-24.5 10.5v57h-6q-30 0 -62 8l22 81q22 -5 40 -5q46 0 85 25.5t58 66.5l-286 62q0 100 68.5 169t167.5 69q30 0 62 -8l-22 -81
q-22 5 -40 5q-46 0 -85 -25.5t-58 -66.5z" />
    <glyph glyph-name="Scaron" unicode="&#x160;" horiz-adv-x="452" 
d="M240 727l-190 190l58 58l132 -132l132 132l58 -58zM177 331q-67 39 -99.5 91t-32.5 106q0 72 52 127t135 55q68 0 140 -42l-40 -68q-50 28 -93 28q-51 0 -80.5 -29.5t-29.5 -72.5q0 -74 88 -125zM275 371q67 -39 99.5 -91t32.5 -106q0 -72 -52 -127t-135 -55
q-68 0 -140 42l40 68q50 -28 93 -28q51 0 80.5 29.5t29.5 72.5q0 74 -88 125z" />
    <glyph glyph-name="scaron" unicode="&#x161;" horiz-adv-x="469" 
d="M240 502l-190 190l58 58l132 -132l132 132l58 -58zM281 384q-46 0 -85 -25.5t-58 -66.5l286 -62q0 -100 -68.5 -169t-167.5 -69q-30 0 -62 8l22 81q22 -5 40 -5q46 0 85 25.5t58 66.5l-286 62q0 100 68.5 169t167.5 69q30 0 62 -8l-22 -81q-22 5 -40 5z" />
    <glyph glyph-name="uni0162" unicode="&#x162;" 
d="M535 700v-80h-510v80h510zM325 560v-560h-80v560h80zM289 -135q14 0 24.5 10.5t10.5 24.5t-10.5 24.5t-24.5 10.5v65q41 0 70.5 -30t29.5 -70q0 -41 -29.5 -70.5t-70.5 -29.5v65z" />
    <glyph glyph-name="uni0163" unicode="&#x163;" horiz-adv-x="310" 
d="M135 230q0 -64 47.5 -109t112.5 -45v-84q-101 0 -170.5 68.5t-69.5 169.5v147l-60 -3l-4 80l64 3v193h80v-188l79 4l4 -80l-83 -4v-152zM111 -200l8 165l82 -4l-8 -165z" />
    <glyph glyph-name="Tcaron" unicode="&#x164;" 
d="M283 727l-190 190l58 58l132 -132l132 132l58 -58zM25 700h510v-80h-510v80zM245 0v560h80v-560h-80z" />
    <glyph glyph-name="tcaron" unicode="&#x165;" horiz-adv-x="310" 
d="M264 749l82 -4l-8 -165l-82 4zM135 230q0 -64 47.5 -109t112.5 -45v-84q-101 0 -170.5 68.5t-69.5 169.5v147l-60 -3l-4 80l64 3v193h80v-188l79 4l4 -80l-83 -4v-152z" />
    <glyph glyph-name="Tbar" unicode="&#x166;" 
d="M25 700h510v-80h-510v80zM325 560v-203h141v-80h-141v-277h-80v277h-131v80h131v203h80z" />
    <glyph glyph-name="tbar" unicode="&#x167;" horiz-adv-x="310" 
d="M135 230q0 -64 47.5 -109t112.5 -45v-84q-101 0 -170.5 68.5t-69.5 169.5v5l-60 -3l-4 80l64 3v62l-60 -3l-4 80l64 3v193h80v-188l79 4l4 -80l-83 -4v-62l79 4l4 -80l-83 -4v-10z" />
    <glyph glyph-name="Umacron" unicode="&#x16a;" horiz-adv-x="605" 
d="M469 890v-80h-352v80h352zM460 700h80v-470q0 -100 -68.5 -169t-166.5 -69q-101 0 -170.5 68.5t-69.5 169.5v470h80v-470q0 -64 47 -109t112 -45q64 0 110 45t46 109v470z" />
    <glyph glyph-name="umacron" unicode="&#x16b;" 
d="M453 640v-80h-352v80h352zM405 460h80v-230q0 -104 -54.5 -171t-151.5 -67q-96 0 -150 66.5t-54 171.5v230h80v-230q0 -68 31.5 -111t93.5 -43q61 0 93 43t32 111v230z" />
    <glyph glyph-name="Uring" unicode="&#x16e;" horiz-adv-x="605" 
d="M306 678q-60 0 -102.5 43t-42.5 104q0 62 42 104.5t103 42.5q62 0 105 -43t43 -104t-43 -104t-105 -43zM307 901q-32 0 -53.5 -22t-21.5 -54t22 -54t53 -22t53.5 22.5t22.5 53.5t-22.5 53.5t-53.5 22.5zM460 700h80v-470q0 -100 -68.5 -169t-166.5 -69
q-101 0 -170.5 68.5t-69.5 169.5v470h80v-470q0 -64 47 -109t112 -45q64 0 110 45t46 109v470z" />
    <glyph glyph-name="uring" unicode="&#x16f;" 
d="M285 453q-60 0 -102.5 43t-42.5 104q0 62 42 104.5t103 42.5q62 0 105 -43t43 -104t-43 -104t-105 -43zM286 676q-32 0 -53.5 -22t-21.5 -54t22 -54t53 -22q32 0 54 22t22 54t-22 54t-54 22zM405 460h80v-230q0 -104 -54.5 -171t-151.5 -67q-96 0 -150 66.5t-54 171.5
v230h80v-230q0 -68 31.5 -111t93.5 -43q61 0 93 43t32 111v230z" />
    <glyph glyph-name="Uhungarumlaut" unicode="&#x170;" horiz-adv-x="605" 
d="M328 940l-91 -195l-67 45l91 195zM390 745l-67 45l91 195l67 -45zM460 700h80v-470q0 -100 -68.5 -169t-166.5 -69q-101 0 -170.5 68.5t-69.5 169.5v470h80v-470q0 -64 47 -109t112 -45q64 0 110 45t46 109v470z" />
    <glyph glyph-name="uhungarumlaut" unicode="&#x171;" 
d="M308 690l-91 -195l-67 45l91 195zM370 495l-67 45l91 195l67 -45zM405 460h80v-230q0 -104 -54.5 -171t-151.5 -67q-96 0 -150 66.5t-54 171.5v230h80v-230q0 -68 31.5 -111t93.5 -43q61 0 93 43t32 111v230z" />
    <glyph glyph-name="Uogonek" unicode="&#x172;" horiz-adv-x="605" 
d="M460 700h80v-470q0 -71 -36.5 -128.5t-96.5 -86.5q-23 -12 -43.5 -38t-20.5 -57q0 -25 14 -42t41 -17q7 0 21 2l9 -59q-24 -4 -47 -4q-51 0 -79.5 33t-28.5 85q0 41 15 75q-95 6 -159 73t-64 164v470h80v-470q0 -64 47 -109t112 -45q64 0 110 45t46 109v470z" />
    <glyph glyph-name="uogonek" unicode="&#x173;" 
d="M405 460h80v-230q0 -75 -29.5 -133t-84.5 -85q-22 -12 -40.5 -37.5t-18.5 -54.5q0 -25 14 -42t41 -17q7 0 21 2l9 -59q-24 -4 -47 -4q-51 0 -79.5 33t-28.5 85q0 41 15 75q-86 8 -134 73t-48 164v230h80v-230q0 -68 31.5 -111t93.5 -43q61 0 93 43t32 111v230z" />
    <glyph glyph-name="Wcircumflex" unicode="&#x174;" horiz-adv-x="1180" 
d="M597 858l-132 -132l-58 58l190 190l190 -190l-58 -58zM15 678l74 30l278 -686l-74 -30zM1091 708l74 -30l-221 -547l-74 30zM633 678l266 -656l-74 -30l-235 580l-178 -441l-74 30l209 517l9 22h68l9 -21v-1z" />
    <glyph glyph-name="wcircumflex" unicode="&#x175;" horiz-adv-x="794" 
d="M391 633l-132 -132l-58 58l190 190l190 -190l-58 -58zM10 439l74 29l180 -447l-74 -29zM710 468l74 -29l-124 -308l-74 29zM355 460h85l176 -439l-74 -29l-145 361l-89 -222l-74 29z" />
    <glyph glyph-name="Ycircumflex" unicode="&#x176;" horiz-adv-x="550" 
d="M291 883l-132 -132l-58 58l190 190l190 -190l-58 -58zM468 708l67 -45l-453 -671l-67 45zM258 448l-67 -45l-176 260l67 45z" />
    <glyph glyph-name="ycircumflex" unicode="&#x177;" horiz-adv-x="442" 
d="M240 683l-132 -132l-58 58l190 190l190 -190l-58 -58zM358 469l74 -30l-275 -679l-74 29zM208 160l-74 -29l-124 308l74 29z" />
    <glyph glyph-name="Ydieresis" unicode="&#x178;" horiz-adv-x="550" 
d="M141 882h82v-82h-82v82zM346 882h82v-82h-82v82zM15 37l453 671l67 -45l-453 -671zM191 403l-176 260l67 45l176 -260z" />
    <glyph glyph-name="Zacute" unicode="&#x179;" horiz-adv-x="603" 
d="M391 863l-248 -91l-28 76l249 90zM553 666l-435 -674l-68 43l436 674zM411 620h-361v80h361v-80zM544 0h-352v80h352v-80z" />
    <glyph glyph-name="zacute" unicode="&#x17a;" horiz-adv-x="511" 
d="M361 613l-248 -91l-28 76l249 90zM481 414l-392 -422l-59 54l392 422zM315 380h-260v80h260v-80zM450 0h-260v80h260v-80z" />
    <glyph glyph-name="Zdotaccent" unicode="&#x17b;" horiz-adv-x="603" 
d="M260 950h82v-82h-82v82zM553 666l-435 -674l-68 43l436 674zM411 620h-361v80h361v-80zM544 0h-352v80h352v-80z" />
    <glyph glyph-name="zdotaccent" unicode="&#x17c;" horiz-adv-x="511" 
d="M225 700h82v-82h-82v82zM481 414l-392 -422l-59 54l392 422zM315 380h-260v80h260v-80zM450 0h-260v80h260v-80z" />
    <glyph glyph-name="Zcaron" unicode="&#x17d;" horiz-adv-x="603" 
d="M333 777l-190 190l58 58l132 -132l132 132l58 -58zM486 709l67 -43l-435 -674l-68 43zM411 700v-80h-361v80h361zM192 0v80h352v-80h-352z" />
    <glyph glyph-name="zcaron" unicode="&#x17e;" horiz-adv-x="511" 
d="M281 502l-190 190l58 58l132 -132l132 132l58 -58zM422 468l59 -54l-392 -422l-59 54zM315 460v-80h-260v80h260zM190 0v80h260v-80h-260z" />
    <glyph glyph-name="Scommaaccent" unicode="&#x218;" horiz-adv-x="452" 
d="M177 331q-67 39 -99.5 91t-32.5 106q0 72 52 127t135 55q68 0 140 -42l-40 -68q-50 28 -93 28q-51 0 -80.5 -29.5t-29.5 -72.5q0 -74 88 -125zM275 371q67 -39 99.5 -91t32.5 -106q0 -72 -52 -127t-135 -55q-68 0 -140 42l40 68q50 -28 93 -28q51 0 80.5 29.5t29.5 72.5
q0 74 -88 125zM283 -39l-8 -165l-82 4l8 165z" />
    <glyph glyph-name="scommaaccent" unicode="&#x219;" horiz-adv-x="469" 
d="M424 230q0 -100 -68.5 -169t-167.5 -69q-30 0 -62 8l22 81q22 -5 40 -5q46 0 85 25.5t58 66.5l-286 62q0 100 68.5 169t167.5 69q30 0 62 -8l-22 -81q-22 5 -40 5q-46 0 -85 -25.5t-58 -66.5zM322 -39l-8 -165l-82 4l8 165z" />
    <glyph glyph-name="uni021A" unicode="&#x21a;" 
d="M535 700v-80h-510v80h510zM325 560v-560h-80v560h80zM325 -39l-8 -165l-82 4l8 165z" />
    <glyph glyph-name="uni021B" unicode="&#x21b;" horiz-adv-x="310" 
d="M135 230q0 -64 47.5 -109t112.5 -45v-84q-101 0 -170.5 68.5t-69.5 169.5v147l-60 -3l-4 80l64 3v193h80v-188l79 4l4 -80l-83 -4v-152zM134 -200l8 165l82 -4l-8 -165z" />
    <glyph glyph-name="circumflex" unicode="&#x2c6;" horiz-adv-x="480" 
d="M430 559l-58 -58l-132 132l-132 -132l-58 58l190 190z" />
    <glyph glyph-name="caron" unicode="&#x2c7;" horiz-adv-x="480" 
d="M372 800l58 -58l-190 -190l-190 190l58 58l132 -132z" />
    <glyph glyph-name="breve" unicode="&#x2d8;" horiz-adv-x="539" 
d="M489 656q-27 -66 -85.5 -106t-131.5 -40q-76 0 -135.5 40t-86.5 106l73 35q18 -43 58.5 -70t89.5 -27q48 0 87.5 26.5t57.5 69.5z" />
    <glyph glyph-name="dotaccent" unicode="&#x2d9;" horiz-adv-x="182" 
d="M50 700h82v-82h-82v82z" />
    <glyph glyph-name="ring" unicode="&#x2da;" horiz-adv-x="393" 
d="M195 747q62 0 105 -43t43 -104t-43 -104t-105 -43q-60 0 -102.5 43t-42.5 104q0 62 42 104.5t103 42.5zM196 676q-32 0 -53.5 -22t-21.5 -54t22 -54t53 -22q32 0 54 22t22 54t-22 54t-54 22z" />
    <glyph glyph-name="ogonek" unicode="&#x2db;" horiz-adv-x="349" 
d="M254 0q-40 0 -64.5 -19.5t-24.5 -57.5q0 -62 55 -62q7 0 21 2l9 -59q-24 -4 -46 -4q-51 0 -80 33t-29 80q0 56 39 98.5t109 42.5z" />
    <glyph glyph-name="tilde" unicode="&#x2dc;" horiz-adv-x="629" 
d="M510 677l69 -49q-70 -104 -165 -104q-60 0 -122 44q-38 26 -71 26q-53 0 -102 -70l-69 49q70 104 165 104q60 0 122 -44q38 -26 71 -26q53 0 102 70z" />
    <glyph glyph-name="hungarumlaut" unicode="&#x2dd;" horiz-adv-x="511" 
d="M100 640l91 195l67 -45l-91 -195zM253 640l91 195l67 -45l-91 -195z" />
    <glyph glyph-name="Wgrave" unicode="&#x1e80;" horiz-adv-x="1180" 
d="M761 823l-28 -76l-248 91l27 75zM15 678l74 30l278 -686l-74 -30zM1091 708l74 -30l-221 -547l-74 30zM633 678l266 -656l-74 -30l-235 580l-178 -441l-74 30l209 517l9 22h68l9 -21v-1z" />
    <glyph glyph-name="wgrave" unicode="&#x1e81;" horiz-adv-x="794" 
d="M541 598l-28 -76l-248 91l27 75zM10 439l74 29l180 -447l-74 -29zM710 468l74 -29l-124 -308l-74 29zM355 460h85l176 -439l-74 -29l-145 361l-89 -222l-74 29z" />
    <glyph glyph-name="Wacute" unicode="&#x1e82;" horiz-adv-x="1180" 
d="M726 838l-248 -91l-28 76l249 90zM15 678l74 30l278 -686l-74 -30zM1091 708l74 -30l-221 -547l-74 30zM633 678l266 -656l-74 -30l-235 580l-178 -441l-74 30l209 517l9 22h68l9 -21v-1z" />
    <glyph glyph-name="wacute" unicode="&#x1e83;" horiz-adv-x="794" 
d="M526 613l-248 -91l-28 76l249 90zM10 439l74 29l180 -447l-74 -29zM710 468l74 -29l-124 -308l-74 29zM355 460h85l176 -439l-74 -29l-145 361l-89 -222l-74 29z" />
    <glyph glyph-name="Wdieresis" unicode="&#x1e84;" horiz-adv-x="1180" 
d="M522 882v-82h-82v82h82zM727 882v-82h-82v82h82zM15 678l74 30l278 -686l-74 -30zM1091 708l74 -30l-221 -547l-74 30zM633 678l266 -656l-74 -30l-235 580l-178 -441l-74 30l209 517l9 22h68l9 -21v-1z" />
    <glyph glyph-name="wdieresis" unicode="&#x1e85;" horiz-adv-x="794" 
d="M334 700v-82h-82v82h82zM539 700v-82h-82v82h82zM10 439l74 29l180 -447l-74 -29zM710 468l74 -29l-124 -308l-74 29zM355 460h85l176 -439l-74 -29l-145 361l-89 -222l-74 29z" />
    <glyph glyph-name="Ygrave" unicode="&#x1ef2;" horiz-adv-x="550" 
d="M155 863l27 75l249 -90l-28 -76zM15 37l453 671l67 -45l-453 -671zM191 403l-176 260l67 45l176 -260z" />
    <glyph glyph-name="ygrave" unicode="&#x1ef3;" horiz-adv-x="442" 
d="M76 613l27 75l249 -90l-28 -76zM157 -240l-74 29l275 680l74 -30zM208 160l-74 -29l-124 308l74 29z" />
    <glyph glyph-name="endash" unicode="&#x2013;" horiz-adv-x="730" 
d="M630 190h-530v80h530v-80z" />
    <glyph glyph-name="emdash" unicode="&#x2014;" horiz-adv-x="992" 
d="M892 190h-792v80h792v-80z" />
    <glyph glyph-name="quoteleft" unicode="&#x2018;" horiz-adv-x="282" 
d="M96 745l82 4l8 -165l-82 -4z" />
    <glyph glyph-name="quoteright" unicode="&#x2019;" horiz-adv-x="282" 
d="M186 745l-8 -165l-82 4l8 165z" />
    <glyph glyph-name="quotesinglbase" unicode="&#x201a;" horiz-adv-x="282" 
d="M186 80l-8 -165l-82 4l8 165z" />
    <glyph glyph-name="quotedblleft" unicode="&#x201c;" horiz-adv-x="448" 
d="M96 745l82 4l8 -165l-82 -4zM262 745l82 4l8 -165l-82 -4z" />
    <glyph glyph-name="quotedblright" unicode="&#x201d;" horiz-adv-x="448" 
d="M186 745l-8 -165l-82 4l8 165zM352 745l-8 -165l-82 4l8 165z" />
    <glyph glyph-name="quotedblbase" unicode="&#x201e;" horiz-adv-x="448" 
d="M186 80l-8 -165l-82 4l8 165zM352 80l-8 -165l-82 4l8 165z" />
    <glyph glyph-name="dagger" unicode="&#x2020;" horiz-adv-x="600" 
d="M550 548v-80h-211v-668h-82v668h-207v80h207v252h82v-252h211z" />
    <glyph glyph-name="daggerdbl" unicode="&#x2021;" horiz-adv-x="600" 
d="M550 435h-211v-270h211v-80h-211v-285h-82v285h-207v80h207v270h-207v80h207v285h82v-285h211v-80z" />
    <glyph glyph-name="bullet" unicode="&#x2022;" horiz-adv-x="507" 
d="M252 468q65 0 110 -45t45 -109t-45 -109t-110 -45q-63 0 -107.5 45t-44.5 109q0 65 44 109.5t108 44.5z" />
    <glyph glyph-name="ellipsis" unicode="&#x2026;" horiz-adv-x="646" 
d="M182 82v-82h-82v82h82zM364 82v-82h-82v82h82zM546 82v-82h-82v82h82z" />
    <glyph glyph-name="perthousand" unicode="&#x2030;" horiz-adv-x="1410" 
d="M225 313q80 0 136.5 57.5t56.5 139.5t-56.5 140t-136.5 58q-85 0 -142.5 -57.5t-57.5 -140.5q0 -82 58.5 -139.5t141.5 -57.5zM188 37l514 671l67 -45l-514 -671zM224 394q-48 0 -82.5 34.5t-34.5 81.5t34.5 81.5t82.5 34.5q46 0 79 -34.5t33 -81.5t-33 -81.5t-79 -34.5z
M747 -8q80 0 136.5 57.5t56.5 139.5t-56.5 140t-136.5 58q-85 0 -142.5 -57.5t-57.5 -140.5q0 -82 58.5 -139.5t141.5 -57.5zM1192 -8q80 0 136.5 57.5t56.5 139.5t-56.5 140t-136.5 58q-85 0 -142.5 -57.5t-57.5 -140.5q0 -82 58.5 -139.5t141.5 -57.5zM746 73
q-48 0 -82.5 34.5t-34.5 81.5t34.5 81.5t82.5 34.5q46 0 79 -34.5t33 -81.5t-33 -81.5t-79 -34.5zM1191 73q-48 0 -82.5 34.5t-34.5 81.5t34.5 81.5t82.5 34.5q46 0 79 -34.5t33 -81.5t-33 -81.5t-79 -34.5z" />
    <glyph glyph-name="guilsinglleft" unicode="&#x2039;" horiz-adv-x="438" 
d="M388 454l-224 -224l224 -224l-57 -57l-281 281l281 281z" />
    <glyph glyph-name="guilsinglright" unicode="&#x203a;" horiz-adv-x="438" 
d="M388 230l-281 -281l-57 57l224 224l-224 224l57 57z" />
    <glyph glyph-name="fraction" unicode="&#x2044;" horiz-adv-x="611" 
d="M15 37l514 671l67 -45l-514 -671z" />
    <glyph glyph-name="Euro" unicode="&#x20ac;" horiz-adv-x="708" 
d="M100 363l-4 80l90 3q31 115 126 188.5t218 73.5l11 -84q-80 0 -158 -44t-110 -130l192 7l4 -80zM607 87l11 -84q-44 -11 -88 -11q-109 0 -197.5 60t-130.5 157l-102 -4l-4 80l369 14l4 -80l-175 -7q36 -62 99 -99t137 -37q41 0 77 11z" />
    <glyph glyph-name="trademark" unicode="&#x2122;" horiz-adv-x="1136" 
d="M100 620v80h360v-80h-140v-290h-80v290h-140zM510 330v370h80v-370h-80zM956 700h80v-370h-80v370zM773 454l76 102l64 -48l-140 -188l-140 188l64 48z" />
    <glyph glyph-name="minus" unicode="&#x2212;" horiz-adv-x="700" 
d="M600 195h-500v80h500v-80z" />
    <glyph glyph-name="approxequal" unicode="&#x2248;" horiz-adv-x="729" 
d="M464 409q95 0 165 -104l-69 -49q-49 70 -102 70q-33 0 -71 -26q-62 -44 -122 -44q-95 0 -165 104l69 49q49 -70 102 -70q33 0 71 26q62 44 122 44zM464 223q95 0 165 -104l-69 -49q-49 70 -102 70q-33 0 -71 -26q-62 -44 -122 -44q-95 0 -165 104l69 49q49 -70 102 -70
q33 0 71 26q62 44 122 44z" />
    <glyph glyph-name="notequal" unicode="&#x2260;" horiz-adv-x="700" 
d="M600 304h-173l-69 -149h242v-80h-279l-100 -216l-67 45l79 171h-133v80h170l69 149h-239v80h276l88 191l67 -45l-67 -146h136v-80z" />
    <glyph glyph-name="lessequal" unicode="&#x2264;" horiz-adv-x="700" 
d="M100 267v65l469 171l28 -75l-353 -128l353 -129l-28 -75zM100 0v80h500v-80h-500z" />
    <glyph glyph-name="greaterequal" unicode="&#x2265;" horiz-adv-x="700" 
d="M600 267l-469 -171l-28 75l353 129l-353 128l28 75l469 -171v-65zM600 0h-500v80h500v-80z" />
    <glyph glyph-name="IJ.liga" horiz-adv-x="605" 
d="M460 700h80v-470q0 -100 -68.5 -169t-166.5 -69q-101 0 -170.5 68.5t-69.5 169.5h80q0 -64 47 -109t112 -45q64 0 110 45t46 109v470zM145 700v-370h-80v370h80zM410 700v-80h-100v80h100z" />
    <glyph glyph-name="i.loclTRK" horiz-adv-x="310" 
d="M132 700v-82h-82v82h82zM135 230q0 -64 47.5 -109t112.5 -45v-84q-101 0 -170.5 68.5t-69.5 169.5v230h80v-230z" />
    <glyph glyph-name="six.alt1" horiz-adv-x="513" 
d="M253 387q83 0 141.5 -57.5t58.5 -139.5q0 -83 -57.5 -140.5t-142.5 -57.5q-80 0 -136.5 58t-56.5 140q0 42 15 77l174 441l71 -37l-114 -290q23 6 47 6zM254 74q48 0 82.5 34.5t34.5 81.5t-34.5 81.5t-82.5 34.5q-46 0 -79 -34.5t-33 -81.5t33 -81.5t79 -34.5z" />
    <glyph glyph-name="nine.alt1" horiz-adv-x="513" 
d="M453 510q0 -42 -15 -77l-174 -441l-71 37l114 290q-22 -6 -47 -6q-83 0 -141.5 57.5t-58.5 139.5q0 83 57.5 140.5t142.5 57.5q80 0 136.5 -58t56.5 -140zM259 394q46 0 79 34.5t33 81.5t-33 81.5t-79 34.5q-48 0 -82.5 -34.5t-34.5 -81.5t34.5 -81.5t82.5 -34.5z" />
    </font>
</defs>
</svg>
