<?xml version="1.0" standalone="no"?>
<!DOCTYPE svg PUBLIC "-//W3C//DTD SVG 20010904//EN"
 "http://www.w3.org/TR/2001/REC-SVG-20010904/DTD/svg10.dtd">
<svg version="1.0" xmlns="http://www.w3.org/2000/svg"
 width="480.000000pt" height="480.000000pt" viewBox="0 0 480.000000 480.000000"
 preserveAspectRatio="xMidYMid meet">
<metadata>
Created by potrace 1.11, written by Peter Selinger 2001-2013
</metadata>
<g transform="translate(0.000000,480.000000) scale(0.100000,-0.100000)"
fill="#000000" stroke="none">
<path d="M3429 4738 c-108 -104 -187 -214 -259 -357 -39 -79 -94 -238 -104
-305 -4 -21 -8 -48 -11 -60 -25 -120 -21 -317 11 -469 41 -199 157 -439 269
-557 36 -39 111 -193 120 -250 0 -3 8 -36 18 -75 47 -191 44 -390 -9 -595 -54
-212 -171 -418 -320 -563 -85 -84 -280 -183 -439 -226 -174 -47 -403 -58 -550
-27 -146 31 -293 84 -373 134 -23 15 -22 15 28 46 177 109 356 222 365 229 6
4 73 47 150 95 77 48 151 95 165 103 188 119 579 364 740 464 113 70 211 133
218 140 11 10 -6 43 -93 184 -59 94 -111 171 -116 171 -5 0 -44 -22 -87 -48
-160 -100 -870 -547 -932 -586 -36 -23 -155 -98 -265 -167 -110 -68 -201 -127
-203 -131 -2 -5 -8 -8 -13 -8 -5 0 -43 -22 -83 -49 -41 -27 -78 -50 -83 -52
-5 -2 -53 -32 -108 -67 -55 -35 -233 -146 -395 -248 -162 -102 -298 -189 -303
-193 -6 -6 91 -170 185 -312 l31 -46 187 119 c104 65 192 118 197 118 6 0 48
-25 94 -56 238 -159 579 -271 835 -273 l51 -1 22 -103 c13 -56 27 -116 32
-133 9 -30 15 -53 25 -104 3 -14 18 -81 35 -149 16 -68 31 -133 34 -145 2 -11
13 -56 23 -98 11 -43 17 -80 14 -83 -11 -11 38 -4 114 15 43 11 88 22 99 24
17 4 102 23 183 41 17 4 20 9 14 21 -5 9 4 72 25 167 18 84 35 166 38 182 5
24 53 250 110 512 3 14 42 43 124 92 66 40 139 88 162 109 115 98 232 214 253
249 5 9 4 19 -2 25 -7 7 0 27 23 62 87 136 182 370 211 519 29 153 37 227 37
347 1 120 -16 286 -37 375 -59 246 -176 491 -323 671 -60 75 -105 240 -105
390 0 96 6 142 33 244 40 151 163 351 219 356 14 1 68 5 120 9 52 4 102 9 110
11 8 1 34 3 58 3 l42 1 -5 68 c-10 113 -8 110 -62 107 -27 -2 -79 -6 -118 -9
-38 -4 -93 -9 -121 -11 l-50 -5 -60 72 c-32 39 -75 89 -95 110 l-35 40 -65
-64z"/>
</g>
</svg>
