<svg version="1" xmlns="http://www.w3.org/2000/svg" viewBox="0 0 480.000000 480.000000"><path d="M342.9 6.2c-10.8 10.4-18.7 21.4-25.9 35.7-3.9 7.9-9.4 23.8-10.4 30.5-.4 2.1-.8 4.8-1.1 6-2.5 12-2.1 31.7 1.1 46.9 4.1 19.9 15.7 43.9 26.9 55.7 3.6 3.9 11.1 19.3 12 25 0 .3.8 3.6 1.8 7.5 4.7 19.1 4.4 39-.9 59.5-5.4 21.2-17.1 41.8-32 56.3-8.5 8.4-28 18.3-43.9 22.6-17.4 4.7-40.3 5.8-55 2.7-14.6-3.1-29.3-8.4-37.3-13.4-2.3-1.5-2.2-1.5 2.8-4.6 17.7-10.9 35.6-22.2 36.5-22.9.6-.4 7.3-4.7 15-9.5s15.1-9.5 16.5-10.3c18.8-11.9 57.9-36.4 74-46.4 11.3-7 21.1-13.3 21.8-14 1.1-1-.6-4.3-9.3-18.4-5.9-9.4-11.1-17.1-11.6-17.1s-4.4 2.2-8.7 4.8c-16 10-87 54.7-93.2 58.6-3.6 2.3-15.5 9.8-26.5 16.7-11 6.8-20.1 12.7-20.3 13.1-.2.5-.8.8-1.3.8s-4.3 2.2-8.3 4.9c-4.1 2.7-7.8 5-8.3 5.2-.5.2-5.3 3.2-10.8 6.7-5.5 3.5-23.3 14.6-39.5 24.8-16.2 10.2-29.8 18.9-30.3 19.3-.6.6 9.1 17 18.5 31.2l3.1 4.6 18.7-11.9c10.4-6.5 19.2-11.8 19.7-11.8.6 0 4.8 2.5 9.4 5.6 23.8 15.9 57.9 27.1 83.5 27.3l5.1.1 2.2 10.3c1.3 5.6 2.7 11.6 3.2 13.3.9 3 1.5 5.3 2.5 10.4.3 1.4 1.8 8.1 3.5 14.9 1.6 6.8 3.1 13.3 3.4 14.5.2 1.1 1.3 5.6 2.3 9.8 1.1 4.3 1.7 8 1.4 8.3-1.1 1.1 3.8.4 11.4-1.5 4.3-1.1 8.8-2.2 9.9-2.4 1.7-.4 10.2-2.3 18.3-4.1 1.7-.4 2-.9 1.4-2.1-.5-.9.4-7.2 2.5-16.7 1.8-8.4 3.5-16.6 3.8-18.2.5-2.4 5.3-25 11-51.2.3-1.4 4.2-4.3 12.4-9.2 6.6-4 13.9-8.8 16.2-10.9 11.5-9.8 23.2-21.4 25.3-24.9.5-.9.4-1.9-.2-2.5-.7-.7 0-2.7 2.3-6.2 8.7-13.6 18.2-37 21.1-51.9 2.9-15.3 3.7-22.7 3.7-34.7.1-12-1.6-28.6-3.7-37.5-5.9-24.6-17.6-49.1-32.3-67.1-6-7.5-10.5-24-10.5-39 0-9.6.6-14.2 3.3-24.4 4-15.1 16.3-35.1 21.9-35.6 1.4-.1 6.8-.5 12-.9s10.2-.9 11-1.1c.8-.1 3.4-.3 5.8-.3l4.2-.1-.5-6.8c-1-11.3-.8-11-6.2-10.7-2.7.2-7.9.6-11.8.9-3.8.4-9.3.9-12.1 1.1l-5 .5-6-7.2c-3.2-3.9-7.5-8.9-9.5-11l-3.5-4-6.5 6.4z"/></svg>