<svg xmlns="http://www.w3.org/2000/svg" viewBox="0 0 75.8 108.56"><title>dood</title><path d="M31.06,42.66a32.88,32.88,0,1,1,65.76,0" transform="translate(-26.06 -4.78)" style="fill:none;stroke:#181716;stroke-miterlimit:10;stroke-width:10px"/><path d="M96.22,36.16A12.48,12.48,0,0,1,88.3,51.93" transform="translate(-26.06 -4.78)" style="fill:none;stroke:#181716;stroke-miterlimit:10;stroke-width:10px"/><path d="M38,52.08a12.48,12.48,0,0,1-5.55-16.75" transform="translate(-26.06 -4.78)" style="fill:none;stroke:#181716;stroke-miterlimit:10;stroke-width:10px"/><path d="M90.92,48.86A13,13,0,0,1,82.16,65" transform="translate(-26.06 -4.78)" style="fill:none;stroke:#181716;stroke-miterlimit:10;stroke-width:10px"/><path d="M41.92,65.74A13,13,0,0,1,36.7,48.13" transform="translate(-26.06 -4.78)" style="fill:none;stroke:#181716;stroke-miterlimit:10;stroke-width:10px"/><path d="M40,65.38a9.47,9.47,0,0,1,5.14,12.36" transform="translate(-26.06 -4.78)" style="fill:none;stroke:#181716;stroke-miterlimit:10;stroke-width:10px"/><path d="M81.71,79.69a10.87,10.87,0,0,1,2.74-15.13" transform="translate(-26.06 -4.78)" style="fill:none;stroke:#181716;stroke-miterlimit:10;stroke-width:10px"/><path d="M79.88,75.48a24.78,24.78,0,0,1-35-.95" transform="translate(-26.06 -4.78)" style="fill:none;stroke:#181716;stroke-miterlimit:10;stroke-width:10px"/><circle cx="26.93" cy="46.82" r="2.77" style="fill:none;stroke:#181716;stroke-miterlimit:10;stroke-width:10px"/><circle cx="48.04" cy="46.82" r="2.77" style="fill:none;stroke:#181716;stroke-miterlimit:10;stroke-width:10px"/><path d="M62.1,64a5.77,5.77,0,0,1,3.28,7.47" transform="translate(-26.06 -4.78)" style="fill:none;stroke:#181716;stroke-miterlimit:10;stroke-width:10px"/><path d="M62.55,71.47a5.77,5.77,0,0,1,3-7.6" transform="translate(-26.06 -4.78)" style="fill:none;stroke:#181716;stroke-miterlimit:10;stroke-width:10px"/><line x1="65.4" y1="81.82" x2="4.64" y2="103.23" style="fill:none;stroke:#181716;stroke-miterlimit:10;stroke-width:10px"/><line x1="63.42" y1="103.94" x2="6.61" y2="80.55" style="fill:none;stroke:#181716;stroke-miterlimit:10;stroke-width:10px"/></svg>