<svg xmlns="http://www.w3.org/2000/svg" viewBox="0 0 75.8 108.56"><title>dood</title><path d="M31.06 42.66a32.88 32.88 0 1 1 65.76 0M96.22 36.16a12.48 12.48 0 0 1-7.92 15.77M38 52.08a12.48 12.48 0 0 1-5.55-16.75M90.92 48.86a13 13 0 0 1-8.76 16.14M41.92 65.74a13 13 0 0 1-5.22-17.61M40 65.38a9.47 9.47 0 0 1 5.14 12.36M81.71 79.69a10.87 10.87 0 0 1 2.74-15.13M79.88 75.48a24.78 24.78 0 0 1-35-.95" transform="translate(-26.06 -4.78)" stroke="#181716" stroke-miterlimit="10" stroke-width="10" fill="none"/><circle cx="26.93" cy="46.82" r="2.77" stroke="#181716" stroke-miterlimit="10" stroke-width="10" fill="none"/><circle cx="48.04" cy="46.82" r="2.77" stroke="#181716" stroke-miterlimit="10" stroke-width="10" fill="none"/><path d="M62.1 64a5.77 5.77 0 0 1 3.28 7.47M62.55 71.47a5.77 5.77 0 0 1 3-7.6" transform="translate(-26.06 -4.78)" stroke="#181716" stroke-miterlimit="10" stroke-width="10" fill="none"/><path stroke="#181716" stroke-miterlimit="10" stroke-width="10" fill="none" d="M65.4 81.82l-60.76 21.41M63.42 103.94l-56.81-23.39M26.93 42.14v10M48.47 41.82v10"/></svg>