<svg xmlns="http://www.w3.org/2000/svg" viewBox="0 0 124.23 121.61"><title>doolhof</title><path d="M90.34,38.53c14.12,13.09,14.2,36,.17,51.11s-36.85,16.81-51,3.72" transform="translate(-1.26 -3.66)" style="fill:none;stroke:#181716;stroke-miterlimit:10;stroke-width:10px"/><path d="M35.81,90.8c-14.12-13.09-14.12-36,0-51.29s37-17,51.14-3.9" transform="translate(-1.26 -3.66)" style="fill:none;stroke:#181716;stroke-miterlimit:10;stroke-width:10px"/><path d="M120.5,65.49c0,30.26-25.39,54.78-56.72,54.78" transform="translate(-1.26 -3.66)" style="fill:none;stroke:#181716;stroke-miterlimit:10;stroke-width:10px"/><path d="M65.67,8.66C95.07,8.66,118.91,33,118.91,63" transform="translate(-1.26 -3.66)" style="fill:none;stroke:#181716;stroke-miterlimit:10;stroke-width:10px"/><path d="M7.6,60.84C7.6,32,31.26,8.66,60.44,8.66" transform="translate(-1.26 -3.66)" style="fill:none;stroke:#181716;stroke-miterlimit:10;stroke-width:10px"/><path d="M61.78,119.27C31.12,119.27,6.26,94,6.26,62.78" transform="translate(-1.26 -3.66)" style="fill:none;stroke:#181716;stroke-miterlimit:10;stroke-width:10px"/><path d="M74.26,52.54a14.49,14.49,0,0,1,0,20.49" transform="translate(-1.26 -3.66)" style="fill:none;stroke:#181716;stroke-miterlimit:10;stroke-width:10px"/><path d="M56.18,74.95c-7.5-5.12-9.71-15-4.92-22" transform="translate(-1.26 -3.66)" style="fill:none;stroke:#181716;stroke-miterlimit:10;stroke-width:10px"/><path d="M51.1,53.36a17.09,17.09,0,0,1,24.16,0" transform="translate(-1.26 -3.66)" style="fill:none;stroke:#181716;stroke-miterlimit:10;stroke-width:10px"/></svg>