<svg xmlns="http://www.w3.org/2000/svg" viewBox="0 0 124.23 121.61"><path d="M89.08 34.87c14.12 13.09 14.2 36 .17 51.11s-36.85 16.81-51 3.72m-3.7-2.56c-14.12-13.09-14.12-36 0-51.29s37-17 51.14-3.9m33.55 29.88c0 30.26-25.39 54.78-56.72 54.78m1.89-111.61c29.4 0 53.24 24.34 53.24 54.34m-111.31-2.16c0-28.84 23.66-52.18 52.84-52.18m1.34 110.61c-30.66 0-55.52-25.27-55.52-56.49" stroke="#000" stroke-miterlimit="10" stroke-width="10" fill="none"/><path d="M74.26 52.54a14.49 14.49 0 0 1 0 20.49" transform="translate(-1.26 -3.66)" stroke="#000" stroke-miterlimit="10" stroke-width="10" fill="none"/><path d="M54.92 71.29c-7.5-5.12-9.71-15-4.92-22" stroke="#000" stroke-miterlimit="10" stroke-width="10" fill="none"/><path d="M51.1 53.36a17.09 17.09 0 0 1 24.16 0" transform="translate(-1.26 -3.66)" stroke="#000" stroke-miterlimit="10" stroke-width="10" fill="none"/></svg>