<svg xmlns="http://www.w3.org/2000/svg" viewBox="0 0 70.95 110.26"><title>KdG_icon-functioneel-vlag</title><rect x="0.23" y="20.57" width="8.5" height="89.69" style="fill:#181716"/><rect x="62.45" y="20.94" width="8.5" height="44.29" style="fill:#181716"/><path d="M78.59,49A19.62,19.62,0,0,1,59,29.37h8.5a11.09,11.09,0,0,0,22.18,0h8.5A19.62,19.62,0,0,1,78.59,49Z" transform="translate(-28.3 -8.43)" style="fill:#181716"/><path d="M67.49,28H59a11.09,11.09,0,0,0-22.18,0H28.3a19.59,19.59,0,0,1,39.19,0Z" transform="translate(-28.3 -8.43)" style="fill:#181716"/><path d="M78.59,95.44A19.62,19.62,0,0,1,59,75.85h8.5a11.09,11.09,0,1,0,22.18,0h8.5A19.62,19.62,0,0,1,78.59,95.44Z" transform="translate(-28.3 -8.43)" style="fill:#181716"/><path d="M67.49,74.5H59a11.09,11.09,0,1,0-22.18,0H28.3a19.59,19.59,0,1,1,39.19,0Z" transform="translate(-28.3 -8.43)" style="fill:#181716"/><line x1="12.7" y1="8.94" x2="12.7" y2="18.94" style="fill:none;stroke:#181716;stroke-miterlimit:10;stroke-width:10px"/><line x1="22.45" y1="18.94" x2="22.45" y2="28.94" style="fill:none;stroke:#181716;stroke-miterlimit:10;stroke-width:10px"/><line x1="30.45" y1="8.94" x2="30.45" y2="18.94" style="fill:none;stroke:#181716;stroke-miterlimit:10;stroke-width:10px"/><line x1="12.45" y1="28.04" x2="12.45" y2="38.04" style="fill:none;stroke:#181716;stroke-miterlimit:10;stroke-width:10px"/><line x1="22.7" y1="38.09" x2="22.7" y2="48.09" style="fill:none;stroke:#181716;stroke-miterlimit:10;stroke-width:10px"/><line x1="31.45" y1="29.04" x2="31.45" y2="39.04" style="fill:none;stroke:#181716;stroke-miterlimit:10;stroke-width:10px"/><line x1="42.07" y1="39.29" x2="42.07" y2="49.29" style="fill:none;stroke:#181716;stroke-miterlimit:10;stroke-width:10px"/><line x1="33.72" y1="48.98" x2="33.72" y2="58.98" style="fill:none;stroke:#181716;stroke-miterlimit:10;stroke-width:10px"/><line x1="51.76" y1="47.98" x2="51.76" y2="57.98" style="fill:none;stroke:#181716;stroke-miterlimit:10;stroke-width:10px"/><line x1="60.82" y1="39.29" x2="60.82" y2="49.29" style="fill:none;stroke:#181716;stroke-miterlimit:10;stroke-width:10px"/><line x1="60.45" y1="57.69" x2="60.45" y2="67.69" style="fill:none;stroke:#181716;stroke-miterlimit:10;stroke-width:10px"/><line x1="42.07" y1="56.69" x2="42.07" y2="66.69" style="fill:none;stroke:#181716;stroke-miterlimit:10;stroke-width:10px"/><line x1="51.76" y1="66.69" x2="51.76" y2="76.69" style="fill:none;stroke:#181716;stroke-miterlimit:10;stroke-width:10px"/><line x1="44.07" y1="74.19" x2="44.07" y2="81.82" style="fill:none;stroke:#181716;stroke-miterlimit:10;stroke-width:10px"/></svg>