<svg xmlns="http://www.w3.org/2000/svg" width="384" height="384" viewBox="64 64 384 384" enable-background="new 64 64 384 384"><path fill="#ccc" d="M448 448s0-26.4-2.2-40.2c-1.8-10.9-16.9-25.3-81.1-48.9-63.2-23.2-59.3-11.9-59.3-54.601 0-27.7 14.1-11.6 23.1-64.2 3.5-20.7 6.3-6.9 13.9-40.1 4-17.4-2.7-18.7-1.9-27s1.6-15.7 3.1-32.7c1.8-20.999-17.7-76.299-87.6-76.299-69.9 0-89.4 55.3-87.5 76.4 1.5 16.9 2.3 24.4 3.1 32.7.8 8.3-5.9 9.6-1.9 27 7.6 33.1 10.4 19.3 13.9 40.1 9 52.6 23.1 36.5 23.1 64.2 0 42.8 3.9 31.5-59.3 54.6-64.2 23.5-79.4 38-81.1 48.9-2.3 13.7-2.3 40.1-2.3 40.1h384z"/></svg>