<svg xmlns="http://www.w3.org/2000/svg" viewBox="0 0 106.85 114.64"><path stroke="#000" stroke-miterlimit="10" stroke-width="10" d="M5 5.03v84.19m96.85-84.19v87.19" fill="none"/><path d="M113.08 97.11a69.72 69.72 0 0 1-98.6 0m98.35-31.67a69.72 69.72 0 0 1-98.6 0m.25-.7a69.72 69.72 0 0 1 98.6 0m-24.65-1.96a34.86 34.86 0 0 1-49.3 0m0 6.22a34.86 34.86 0 0 1 49.3 0" transform="translate(-10.23 -7.9)" stroke="#000" stroke-miterlimit="10" stroke-width="10" fill="none"/><path stroke="#000" stroke-miterlimit="10" stroke-width="10" d="M65.42 56.82l-26.98 1.95m17.21-58.77v22.25m-12.96-22.25v57.47m25.99-57.47v22.25m26.47-12.51h-22.3m-39.96 0h-25.89" fill="none"/></svg>