<svg xmlns="http://www.w3.org/2000/svg" viewBox="0 0 106.85 114.64"><title>put</title><line x1="5" y1="5.03" x2="5" y2="89.22" style="fill:none;stroke:#181716;stroke-miterlimit:10;stroke-width:10px"/><line x1="101.85" y1="5.03" x2="101.85" y2="92.22" style="fill:none;stroke:#181716;stroke-miterlimit:10;stroke-width:10px"/><path d="M113.08,97.11a69.72,69.72,0,0,1-98.6,0" transform="translate(-10.23 -7.9)" style="fill:none;stroke:#181716;stroke-miterlimit:10;stroke-width:10px"/><path d="M112.83,65.44a69.72,69.72,0,0,1-98.6,0" transform="translate(-10.23 -7.9)" style="fill:none;stroke:#181716;stroke-miterlimit:10;stroke-width:10px"/><path d="M14.48,64.74a69.72,69.72,0,0,1,98.6,0" transform="translate(-10.23 -7.9)" style="fill:none;stroke:#181716;stroke-miterlimit:10;stroke-width:10px"/><path d="M88.43,62.78a34.86,34.86,0,0,1-49.3,0" transform="translate(-10.23 -7.9)" style="fill:none;stroke:#181716;stroke-miterlimit:10;stroke-width:10px"/><path d="M39.13,69a34.86,34.86,0,0,1,49.3,0" transform="translate(-10.23 -7.9)" style="fill:none;stroke:#181716;stroke-miterlimit:10;stroke-width:10px"/><line x1="65.42" y1="56.82" x2="38.44" y2="58.77" style="fill:none;stroke:#181716;stroke-miterlimit:10;stroke-width:10px"/><line x1="55.65" x2="55.65" y2="22.25" style="fill:none;stroke:#181716;stroke-miterlimit:10;stroke-width:10px"/><line x1="42.69" x2="42.69" y2="57.47" style="fill:none;stroke:#181716;stroke-miterlimit:10;stroke-width:10px"/><line x1="68.68" x2="68.68" y2="22.25" style="fill:none;stroke:#181716;stroke-miterlimit:10;stroke-width:10px"/><line x1="95.15" y1="9.74" x2="72.85" y2="9.74" style="fill:none;stroke:#181716;stroke-miterlimit:10;stroke-width:10px"/><line x1="32.89" y1="9.74" x2="7" y2="9.74" style="fill:none;stroke:#181716;stroke-miterlimit:10;stroke-width:10px"/></svg>